<svg width="13" height="17" viewBox="0 0 13 17" fill="none" xmlns="http://www.w3.org/2000/svg">
<line x1="0.25" y1="16.5498" x2="12.75" y2="16.5498" stroke="#2B2A29" stroke-width="0.5" stroke-linecap="round"/>
<path d="M1.73242 16.8002V2.06686C1.73242 1.37353 2.28508 1.2002 2.56141 1.2002H6.70634H10.4368C10.7131 1.2002 11.2658 1.37353 11.2658 2.06686V16.8002" stroke="#2B2A29" stroke-width="0.5"/>
<line x1="1.73242" y1="9.61719" x2="11.2658" y2="9.61719" stroke="#2B2A29" stroke-width="0.5"/>
<path fill-rule="evenodd" clip-rule="evenodd" d="M6.967 3.82496C7.09338 3.84671 7.21727 3.88248 7.33631 3.93179C7.54661 4.01889 7.73769 4.14657 7.89865 4.30753C8.0596 4.46848 8.18728 4.65956 8.27439 4.86986C8.32881 5.00126 8.36674 5.13856 8.38753 5.27861C8.40826 5.41818 8.29194 5.53318 8.15084 5.53318C8.00974 5.53318 7.89803 5.41758 7.86875 5.27954C7.85325 5.20645 7.83104 5.13476 7.80231 5.0654C7.74088 4.9171 7.65084 4.78235 7.53733 4.66884C7.42383 4.55533 7.28907 4.46529 7.14077 4.40387C6.99247 4.34244 6.83352 4.31082 6.67299 4.31082C6.51247 4.31082 6.35352 4.34244 6.20522 4.40387C6.05691 4.46529 5.92216 4.55533 5.80866 4.66884C5.69515 4.78235 5.60511 4.9171 5.54368 5.0654C5.51495 5.13476 5.49274 5.20645 5.47724 5.27954C5.44796 5.41758 5.33625 5.53318 5.19515 5.53318C5.05405 5.53318 4.93773 5.41818 4.95846 5.27861C4.97925 5.13856 5.01717 5.00126 5.0716 4.86986C5.15871 4.65956 5.28639 4.46848 5.44734 4.30753C5.6083 4.14657 5.79938 4.01889 6.00968 3.93179C6.15623 3.87108 6.31013 3.83091 6.467 3.81213L6.46658 1.20027L6.96658 1.2002L6.967 3.82496Z" fill="#2B2A29"/>
<line x1="4.08203" y1="16.5498" x2="4.08203" y2="13.5831" stroke="#2B2A29" stroke-width="0.5" stroke-linecap="round"/>
</svg>
