<svg width="18" height="18" viewBox="0 0 18 18" fill="none" xmlns="http://www.w3.org/2000/svg">
<circle cx="13.8456" cy="7.61516" r="0.692308" fill="#2B2A29"/>
<path fill-rule="evenodd" clip-rule="evenodd" d="M14.0069 4.56065C14.1795 4.59126 14.3437 4.6247 14.4999 4.66114C14.5267 4.38022 14.5383 4.0727 14.5383 3.73627C14.5383 0.659453 13.5608 0 8.99989 0C4.43896 0 3.46143 0.659453 3.46143 3.73627C3.46143 4.07266 3.47311 4.38015 3.49988 4.66105C3.65603 4.62461 3.82023 4.59118 3.99284 4.56058C3.97166 4.31675 3.96143 4.04345 3.96143 3.73627C3.96143 2.21545 4.21232 1.52524 4.79993 1.12883C5.11972 0.9131 5.58645 0.750244 6.2845 0.645588C6.98033 0.541266 7.86711 0.5 8.99989 0.5C10.1327 0.5 11.0194 0.541266 11.7153 0.645588C12.4133 0.750244 12.8801 0.9131 13.1998 1.12883C13.7875 1.52524 14.0383 2.21545 14.0383 3.73627C14.0383 4.04348 14.0281 4.3168 14.0069 4.56065Z" fill="#2B2A29"/>
<path d="M3.71143 13.8462C3.71143 15.5762 3.96121 16.4948 4.66561 17.0208C5.0261 17.29 5.52931 17.4752 6.23947 17.591C6.94922 17.7067 7.84563 17.75 8.9775 17.75C10.1093 17.75 11.0086 17.7067 11.7228 17.591C12.4373 17.4752 12.9466 17.2898 13.3131 17.0199C14.0283 16.4931 14.2883 15.5738 14.2883 13.8462C14.2883 12.7996 14.2877 12.0429 14.2042 11.4815C14.1218 10.9273 13.9654 10.6148 13.6936 10.4118C13.4064 10.1973 12.9473 10.0707 12.1717 10.0064C11.4025 9.94252 10.3723 9.94231 8.9775 9.94231C7.59386 9.94231 6.57213 9.94252 5.80936 10.0063C5.04027 10.0707 4.5856 10.1972 4.30132 10.4112C4.03211 10.614 3.87677 10.9266 3.79494 11.4812C3.71207 12.0428 3.71143 12.7996 3.71143 13.8462Z" stroke="#2B2A29" stroke-width="0.5" stroke-linecap="round" stroke-linejoin="round"/>
<path fill-rule="evenodd" clip-rule="evenodd" d="M1.29189 9.33768C1.29189 10.4726 1.33729 11.2929 1.49929 11.9082C1.65307 12.4924 1.90297 12.8589 2.31623 13.1266C2.59168 13.3051 2.96048 13.4533 3.46359 13.5708C3.46207 13.6607 3.46133 13.7526 3.46133 13.8466C3.46133 13.9628 3.46246 14.0758 3.46482 14.1859C0.999894 13.6585 0.691895 12.3628 0.691895 9.33768C0.691895 4.80222 2.07651 4.1543 8.99959 4.1543C16.615 4.1543 17.3073 4.80222 17.3073 9.33768C17.3073 12.3627 16.9993 13.6583 14.5348 14.1858C14.5371 14.0758 14.5382 13.9627 14.5382 13.8466C14.5382 13.7526 14.5375 13.6606 14.536 13.5707C15.0389 13.4532 15.4076 13.305 15.6829 13.1266C16.0962 12.8589 16.3461 12.4924 16.4999 11.9082C16.6619 11.2929 16.7073 10.4726 16.7073 9.33768C16.7073 8.20272 16.6619 7.38248 16.4999 6.76713C16.3461 6.18298 16.0962 5.8165 15.6829 5.54873C15.2375 5.26015 14.5481 5.05065 13.4413 4.92241C12.3427 4.79511 10.9015 4.7543 8.99959 4.7543C7.27229 4.7543 5.9177 4.79505 4.8519 4.92218C3.78096 5.04992 3.05757 5.25929 2.5589 5.55931C1.64946 6.10647 1.29189 7.08218 1.29189 9.33768Z" fill="#2B2A29"/>
</svg>
