<svg width="20" height="18" viewBox="0 0 20 18" fill="none" xmlns="http://www.w3.org/2000/svg">
<path fill-rule="evenodd" clip-rule="evenodd" d="M9.90516 3.32156C9.32916 3.32156 8.87316 3.22556 8.58516 3.03356C8.39316 2.88956 8.32116 2.74556 8.29716 2.62556C8.17716 1.92956 9.40116 1.32956 10.6732 1.06556C11.4098 0.918253 12.1017 0.904893 12.6043 1.01027C13.7139 0.877913 14.8513 1.00487 14.9692 1.64156C15.0892 2.33756 13.8652 2.93756 12.5932 3.20156L12.145 3.26559C12.2482 7.48551 12.0563 9.27261 11.6812 12.2736H11.6862C12.1015 10.3184 13.6082 8.96161 15.3292 8.96161C17.3932 8.96161 19.0972 10.9296 19.0972 13.3536C19.0972 15.7776 17.4172 17.7456 15.3532 17.7456C14.5132 17.7456 13.7212 17.4096 13.0972 16.8576C13.074 16.8344 13.0484 16.8112 13.0218 16.7872C12.9659 16.7367 12.906 16.6827 12.8572 16.6176L12.8332 16.5936C12.277 15.991 11.855 15.2094 11.697 14.3136H8.23746C7.86864 16.29 6.32626 17.7455 4.52916 17.7455C3.68916 17.7455 2.89716 17.4095 2.27316 16.8575C2.24999 16.8344 2.22434 16.8112 2.1978 16.7873C2.14187 16.7367 2.08198 16.6826 2.03316 16.6175L2.00916 16.5935C1.26516 15.8015 0.785156 14.6495 0.785156 13.3535C0.785156 12.0335 1.28916 10.8575 2.08116 10.0655L2.10516 10.0415C2.15316 9.99351 2.17716 9.96951 2.22516 9.94551C2.87316 9.34551 3.66516 9.00951 4.55316 9.00951C6.246 9.00951 7.69668 10.3334 8.16366 12.1469C8.73936 11.6332 10.3507 9.61571 10.4764 3.28844C10.2779 3.30952 10.0855 3.32156 9.90516 3.32156ZM12.5762 2.70197C13.8306 2.45275 14.5119 1.92451 14.4652 1.73756C14.4471 1.61118 14.0624 1.44406 13.3722 1.44053C13.4198 1.51171 13.4448 1.57982 13.4572 1.64156C13.5262 2.04206 13.1503 2.41078 12.5762 2.70197ZM12.584 1.49916C12.736 1.53708 12.8526 1.58682 12.9292 1.64156C12.9349 1.64723 12.9419 1.65289 12.9493 1.65887C12.9732 1.67823 13.0012 1.70089 13.0012 1.73756C13.0492 1.92956 12.3292 2.48156 11.0092 2.72156C9.92916 2.91356 9.13716 2.81756 8.87316 2.62556C8.86746 2.6199 8.86046 2.61423 8.85306 2.60825C8.82916 2.58889 8.80116 2.56623 8.80116 2.52956C8.75316 2.33756 9.47316 1.78556 10.7932 1.54556C11.2012 1.44956 11.5852 1.42556 11.8972 1.42556C12.1035 1.42556 12.2857 1.44165 12.4405 1.46889C12.4844 1.4947 12.5357 1.50631 12.584 1.49916ZM11.0812 3.20156C11.2765 3.16103 11.4706 3.11258 11.659 3.05707C11.775 7.73181 11.5592 9.52861 11.1772 12.4896C11.1532 12.5616 11.1772 12.6336 11.2252 12.6816C11.2732 12.7296 11.3452 12.7536 11.4172 12.7536H14.2492C14.5132 12.7536 14.7052 12.9696 14.7052 13.2336V13.3536C14.7052 13.6176 14.5132 13.8336 14.2492 13.8336H8.30266C8.31486 13.6916 8.32116 13.5475 8.32116 13.4016C8.32116 13.1539 8.30336 12.9109 8.26926 12.6744C8.74226 12.3586 10.8296 10.5537 10.9577 3.2226C10.9989 3.21585 11.04 3.20883 11.0812 3.20156ZM12.2958 14.3136C12.4857 15.1658 12.8987 15.8861 13.4572 16.3776C13.8652 16.7136 14.2972 16.7616 14.4892 16.7616C16.0492 16.7616 17.3212 15.2256 17.3212 13.3536C17.3212 11.4816 16.0492 9.94561 14.4892 9.94561C14.0572 9.94561 13.6732 10.1136 13.3372 10.4256L13.3132 10.4496C12.8626 10.9227 12.4965 11.544 12.3144 12.2736H14.2492C14.7532 12.2976 15.1612 12.7296 15.1612 13.2336V13.3536C15.1852 13.8816 14.7532 14.3136 14.2492 14.3136H12.2958ZM4.84116 9.58551C6.16116 10.1375 7.09716 11.6255 7.09716 13.3535C7.09716 15.0815 6.16116 16.5455 4.84116 17.1216C6.42516 16.9295 7.67316 15.3215 7.67316 13.3535C7.67316 11.3855 6.44916 9.77751 4.84116 9.58551ZM2.60916 16.3535C3.04116 16.7135 3.49716 16.7616 3.66516 16.7616C5.22516 16.7616 6.49716 15.2255 6.49716 13.3535C6.49716 11.4815 5.22516 9.94551 3.66516 9.94551C3.49716 9.94551 2.92116 10.0655 2.53716 10.4015C1.81716 11.0975 1.36116 12.1535 1.36116 13.3535C1.36116 14.5775 1.86516 15.6575 2.60916 16.3535ZM17.9212 13.3536C17.9212 11.6256 16.9852 10.1376 15.6652 9.58561C17.2492 9.77761 18.4972 11.3856 18.4972 13.3536C18.4972 15.3216 17.2492 16.9296 15.6652 17.1216C16.9852 16.5456 17.9212 15.0816 17.9212 13.3536Z" fill="#2B2A29"/>
</svg>
