<svg width="18" height="13" viewBox="0 0 18 13" fill="none" xmlns="http://www.w3.org/2000/svg">
<path d="M3.9375 0.75C2.79274 0.75 1.86176 1.42594 1.22933 2.51083C0.599063 3.59203 0.25 5.09835 0.25 6.83643C0.25 9.18255 0.553623 10.78 1.63568 11.7908C1.98242 12.1146 2.37218 12.256 2.77651 12.2498C3.17266 12.2437 3.56326 12.0966 3.92596 11.8805C4.64862 11.4501 5.32454 10.7074 5.82106 10.034C6.53795 9.06171 7.5893 8.45974 8.75 8.45974C9.9107 8.45974 10.9621 9.06172 11.6789 10.034C12.1755 10.7074 12.8514 11.4501 13.574 11.8805C13.9367 12.0966 14.3273 12.2437 14.7235 12.2498C15.1278 12.256 15.5176 12.1146 15.8643 11.7908C16.9464 10.78 17.25 9.18255 17.25 6.83643C17.25 5.09835 16.9009 3.59203 16.2707 2.51085C15.6382 1.42596 14.7073 0.750034 13.5625 0.750034C12.8241 0.750034 12.2602 0.940785 11.5455 1.24831C10.7746 1.57998 9.80637 1.77998 8.75 1.77998C7.69363 1.77998 6.7254 1.57998 5.95452 1.24831C5.23978 0.940789 4.67589 0.75 3.9375 0.75Z" stroke="#2B2A29" stroke-width="0.5" stroke-linecap="round" stroke-linejoin="round"/>
<path fill-rule="evenodd" clip-rule="evenodd" d="M13.5625 4.78125C13.9422 4.78125 14.25 4.47345 14.25 4.09375C14.25 3.71405 13.9422 3.40625 13.5625 3.40625C13.1828 3.40625 12.875 3.71405 12.875 4.09375C12.875 4.47345 13.1828 4.78125 13.5625 4.78125ZM14.9375 6.15625C15.3172 6.15625 15.625 5.84845 15.625 5.46875C15.625 5.08905 15.3172 4.78125 14.9375 4.78125C14.5578 4.78125 14.25 5.08905 14.25 5.46875C14.25 5.84845 14.5578 6.15625 14.9375 6.15625ZM14.25 6.84375C14.25 7.22345 13.9422 7.53125 13.5625 7.53125C13.1828 7.53125 12.875 7.22345 12.875 6.84375C12.875 6.46405 13.1828 6.15625 13.5625 6.15625C13.9422 6.15625 14.25 6.46405 14.25 6.84375ZM12.1875 6.15625C12.5672 6.15625 12.875 5.84845 12.875 5.46875C12.875 5.08905 12.5672 4.78125 12.1875 4.78125C11.8078 4.78125 11.5 5.08905 11.5 5.46875C11.5 5.84845 11.8078 6.15625 12.1875 6.15625Z" fill="#2B2A29"/>
<path d="M3.9375 4.09375V5.46875M3.9375 6.84375V5.46875M3.9375 5.46875H5.3125H2.5625" stroke="#2B2A29" stroke-width="0.8" stroke-linecap="round" stroke-linejoin="round"/>
</svg>
