<svg width="12" height="18" viewBox="0 0 12 18" fill="none" xmlns="http://www.w3.org/2000/svg">
<path d="M1 15V3C1 1.89543 1.89543 1 3 1H9C10.1046 1 11 1.89543 11 3V15C11 16.1046 10.1046 17 9 17H3C1.89543 17 1 16.1046 1 15Z" stroke="#2B2A29" stroke-width="0.5"/>
<path d="M8.75 12C8.75 13.5188 7.51878 14.75 6 14.75C4.48122 14.75 3.25 13.5188 3.25 12C3.25 10.4812 4.48122 9.25 6 9.25C7.51878 9.25 8.75 10.4812 8.75 12Z" stroke="#2B2A29" stroke-width="0.5"/>
<path d="M6.5 12C6.5 12.2761 6.27614 12.5 6 12.5C5.72386 12.5 5.5 12.2761 5.5 12C5.5 11.7239 5.72386 11.5 6 11.5C6.27614 11.5 6.5 11.7239 6.5 12Z" fill="white" stroke="#2B2A29"/>
<path d="M7.75 5C7.75 5.9665 6.9665 6.75 6 6.75C5.0335 6.75 4.25 5.9665 4.25 5C4.25 4.0335 5.0335 3.25 6 3.25C6.9665 3.25 7.75 4.0335 7.75 5Z" fill="white" stroke="#2B2A29" stroke-width="0.5"/>
</svg>
