<svg width="10" height="18" viewBox="0 0 10 18" fill="none" xmlns="http://www.w3.org/2000/svg">
<path d="M8.75 1H1.25C0.835786 1 0.5 1.33579 0.5 1.75V16.75C0.5 17.1642 0.835786 17.5 1.25 17.5H8.75C9.16421 17.5 9.5 17.1642 9.5 16.75V1.75C9.5 1.33579 9.16421 1 8.75 1Z" stroke="#2B2A29" stroke-width="0.5" stroke-linecap="round" stroke-linejoin="round"/>
<path fill-rule="evenodd" clip-rule="evenodd" d="M5.37161 6.01544C5.49055 6.05918 5.57143 6.18787 5.57143 6.33335V8.00001L6.71428 8.00001C6.82082 8.00001 6.91851 8.06916 6.96771 8.1794C7.01691 8.28965 7.00945 8.42267 6.94835 8.52449L4.94835 11.8578C4.87684 11.977 4.74733 12.0283 4.62839 11.9846C4.50945 11.9408 4.42857 11.8121 4.42857 11.6666L4.42857 9.99999H3.28571C3.17918 9.99999 3.08149 9.93084 3.03229 9.8206C2.98309 9.71035 2.99055 9.57733 3.05165 9.47551L5.05165 6.1422C5.12316 6.02301 5.25267 5.97171 5.37161 6.01544Z" stroke="#2B2A29" stroke-width="0.5" stroke-linecap="round" stroke-linejoin="round"/>
</svg>
