<svg width="19" height="21" viewBox="0 0 19 21" fill="none" xmlns="http://www.w3.org/2000/svg">
<path d="M5.60718 4.06735L5.71029 4.15223L5.81347 4.06734C6.77771 3.27373 6.77549 1.78874 5.81347 0.996994L5.71029 0.912109L5.60718 0.996994C4.64288 1.79056 4.64504 3.27559 5.60718 4.06735Z" fill="#F54503" stroke="#2B2A29" stroke-width="0.5"/>
<path d="M17.0697 9.02242L17.1728 9.10731L17.276 9.02242C18.2403 8.22882 18.2381 6.74383 17.276 5.95207L17.1728 5.86719L17.0697 5.95207C16.9357 6.06234 16.8174 6.26671 16.7266 6.4969C16.6333 6.73364 16.5596 7.02177 16.5282 7.32234C16.4663 7.91402 16.5646 8.60666 17.0697 9.02242Z" fill="#F54503" stroke="#2B2A29" stroke-width="0.5"/>
<path d="M1.41898 9.5764L1.52213 9.66135L1.62528 9.5764C2.34272 8.98591 2.34108 7.88102 1.62527 7.29192L1.52213 7.20703L1.41898 7.29192C1.31318 7.37898 1.22439 7.53526 1.15813 7.70331C1.08928 7.87784 1.03519 8.08962 1.01209 8.31047C0.966893 8.74263 1.03694 9.262 1.41898 9.5764Z" fill="#F54503" stroke="#2B2A29" stroke-width="0.5"/>
<path d="M12.4496 5.21315L12.5527 5.29805L12.6559 5.21315C13.3733 4.62266 13.3717 3.51777 12.6559 2.92864L12.5527 2.84375L12.4496 2.92864C11.7321 3.5191 11.7338 4.62407 12.4496 5.21315Z" fill="#F54503" stroke="#2B2A29" stroke-width="0.5"/>
<path d="M11.6959 7.97953C11.4242 7.18732 10.9671 6.43195 10.5358 5.88825V5.88823C10.3587 5.6649 9.68269 4.71728 9.55271 3.11843C9.51472 2.65132 8.96489 2.43081 8.62129 2.7464L11.6959 7.97953ZM11.6959 7.97953C11.7486 7.85297 11.7926 7.71687 11.8218 7.56847C11.8886 7.22841 11.9845 6.97011 12.1229 6.79809C12.2758 6.60783 12.4768 6.52996 12.6888 6.56196C12.8739 6.58989 13.0377 6.6974 13.1635 6.80021C13.2942 6.90699 13.415 7.03535 13.513 7.14352C14.9976 8.78273 16.0233 10.9402 16.2361 13.0588C16.4497 15.1838 15.8443 17.2848 14.0462 18.7541C12.2182 20.2477 9.59835 20.6512 7.31592 20.1059C5.03194 19.5601 3.02305 18.0458 2.49402 15.6375C1.87809 12.8378 2.54612 9.84495 3.91737 7.39156H3.91738C3.9489 7.33519 3.98372 7.2773 4.02122 7.21961H4.02123C4.32451 6.7531 5.00917 6.86525 5.18322 7.37363C5.36221 7.89637 5.61373 8.30306 5.82624 8.58392C6.00683 6.2943 6.97291 4.2605 8.62129 2.74641L11.6959 7.97953Z" stroke="#2B2A29" stroke-width="0.5"/>
<path d="M3.68154 15.8661C3.08956 13.1147 3.71618 10.1601 5.03133 7.71278C4.99806 7.63153 4.96607 7.54757 4.93618 7.4603C4.82985 7.14974 4.41835 7.09046 4.23982 7.3651C4.20555 7.41783 4.17381 7.47063 4.14515 7.5219C2.79837 9.93149 2.15051 12.8577 2.74944 15.58C3.20621 17.6595 4.83293 19.0553 6.79993 19.6869C5.26545 18.9348 4.06375 17.6454 3.68154 15.8661Z" fill="#F54503"/>
<path d="M6.99531 9.1877C7.06802 6.93458 7.87344 4.91421 9.31494 3.36217C9.305 3.2767 9.29768 3.20028 9.2929 3.14227C9.27224 2.89138 8.99089 2.76556 8.80905 2.93189C7.12308 4.47426 6.09547 6.65715 6.05859 9.23328L6.37415 9.48125C6.52957 9.60339 6.74011 9.59809 6.88854 9.48622C6.97707 9.41026 6.98975 9.29567 6.99531 9.1877Z" fill="#F54503"/>
<path d="M11.6293 10.7029L11.6292 10.7028C11.6131 10.6846 11.5973 10.667 11.5816 10.65C11.5789 10.6629 11.5762 10.6763 11.5734 10.6904L11.5734 10.6904C11.4907 11.12 11.2977 11.443 11.1632 11.6592L10.4879 12.7448L10.2475 11.4892C10.1281 10.8651 9.75623 10.1857 9.39302 9.7189L9.39292 9.71877C9.23308 9.5132 8.79213 8.87185 8.59597 7.83241C7.65735 8.89993 7.14045 10.2774 7.11877 11.8227L7.10366 12.9L6.29068 12.1929L6.61882 11.8156C6.29068 12.1929 6.29056 12.1928 6.29044 12.1927L6.29018 12.1925L6.28962 12.192L6.28836 12.1909L6.28525 12.1881L6.27673 12.1805C6.27005 12.1744 6.26141 12.1664 6.251 12.1566C6.23019 12.1368 6.20226 12.1094 6.16883 12.0745C6.10205 12.0047 6.01279 11.9043 5.91423 11.7742C5.77778 11.5941 5.62181 11.3547 5.48328 11.0588C4.63848 12.7363 4.26458 14.6992 4.65487 16.5082L4.6549 16.5083C5.09034 18.5296 7.11639 19.5924 9.23542 19.4939C11.3371 19.3961 13.2536 18.1655 13.4763 15.8661L11.6293 10.7029ZM11.6293 10.7029C13.0306 12.2805 13.6306 14.2635 13.4764 15.8659L11.6293 10.7029Z" stroke="#F54503"/>
</svg>
