<svg width="20" height="12" viewBox="0 0 20 12" fill="none" xmlns="http://www.w3.org/2000/svg">
<path d="M18.9574 6.0998L17.0264 7.06533L14.5264 2.27767L16.4771 1.30231C16.6237 1.22903 16.7931 1.21624 16.949 1.26669C17.1049 1.31713 17.2348 1.42679 17.3106 1.57204L19.2319 5.25149C19.2704 5.32506 19.2937 5.40555 19.3007 5.48826C19.3077 5.57097 19.2981 5.65423 19.2726 5.7332C19.247 5.81217 19.206 5.88526 19.1519 5.9482C19.0978 6.01115 19.0317 6.06268 18.9574 6.0998V6.0998Z" stroke="#2B2A29" stroke-width="0.5" stroke-linecap="round" stroke-linejoin="round"/>
<path d="M3.27656 6.98135L1.34549 6.01582C1.27125 5.9787 1.20515 5.92716 1.15105 5.86422C1.09694 5.80128 1.05591 5.72819 1.03036 5.64922C1.0048 5.57025 0.995236 5.48699 1.00221 5.40428C1.00919 5.32157 1.03257 5.24108 1.07098 5.16751L2.99231 1.48805C3.06815 1.34281 3.198 1.23315 3.3539 1.1827C3.5098 1.13226 3.67927 1.14505 3.82583 1.21833L5.77656 2.19369L3.27656 6.98135Z" stroke="#2B2A29" stroke-width="0.5" stroke-linecap="round" stroke-linejoin="round"/>
<path d="M17.0264 7.06518L15.7764 8.52752L12.9016 11.4023C12.8253 11.4786 12.7305 11.5339 12.6265 11.5627C12.5225 11.5915 12.4128 11.5929 12.3081 11.5667L7.78018 10.4347C7.69525 10.4135 7.61573 10.3747 7.54677 10.3207L3.27637 6.98145" stroke="#2B2A29" stroke-width="0.5" stroke-linecap="round" stroke-linejoin="round"/>
<path d="M15.7765 8.52734L12.339 6.02734L11.339 6.77735C10.9063 7.1019 10.3799 7.27734 9.83902 7.27734C9.2981 7.27734 8.77176 7.1019 8.33902 6.77735L7.91553 6.45972C7.84389 6.406 7.78464 6.3375 7.74178 6.25888C7.69891 6.18026 7.67345 6.09335 7.6671 6.00403C7.66075 5.91471 7.67367 5.82507 7.70498 5.74118C7.7363 5.65728 7.78527 5.5811 7.84859 5.51778L10.906 2.4604C10.964 2.40237 11.0329 2.35633 11.1087 2.32492C11.1846 2.29351 11.2658 2.27734 11.3479 2.27734H14.5265" stroke="#2B2A29" stroke-width="0.5" stroke-linecap="round" stroke-linejoin="round"/>
<path d="M5.82129 2.19385L9.83066 1.02498C9.97389 0.983224 10.1273 0.994078 10.2632 1.05558L12.9639 2.27758" stroke="#2B2A29" stroke-width="0.5" stroke-linecap="round" stroke-linejoin="round"/>
</svg>
