<svg width="15" height="10" viewBox="0 0 15 10" fill="none" xmlns="http://www.w3.org/2000/svg">
<path d="M1 8V2C1 1.44772 1.44772 1 2 1H13C13.5523 1 14 1.44772 14 2V6.58579C14 6.851 13.8946 7.10536 13.7071 7.29289L12.2929 8.70711C12.1054 8.89464 11.851 9 11.5858 9H2C1.44772 9 1 8.55228 1 8Z" stroke="#2B2A29" stroke-width="0.5"/>
<path d="M5.31836 5.32227C5.31836 5.22461 5.28125 5.14909 5.20703 5.0957C5.13411 5.04102 5.00586 4.99414 4.82227 4.95508C4.63997 4.91602 4.49479 4.86914 4.38672 4.81445C4.27995 4.75977 4.20052 4.69466 4.14844 4.61914C4.09766 4.54362 4.07227 4.45378 4.07227 4.34961C4.07227 4.17643 4.14518 4.02995 4.29102 3.91016C4.43815 3.79036 4.62565 3.73047 4.85352 3.73047C5.0931 3.73047 5.28711 3.79232 5.43555 3.91602C5.58529 4.03971 5.66016 4.19792 5.66016 4.39062H5.29688C5.29688 4.29167 5.25456 4.20638 5.16992 4.13477C5.08659 4.06315 4.98112 4.02734 4.85352 4.02734C4.72201 4.02734 4.61914 4.05599 4.54492 4.11328C4.4707 4.17057 4.43359 4.24544 4.43359 4.33789C4.43359 4.42513 4.4681 4.49089 4.53711 4.53516C4.60612 4.57943 4.73047 4.62174 4.91016 4.66211C5.09115 4.70247 5.23763 4.75065 5.34961 4.80664C5.46159 4.86263 5.54427 4.93034 5.59766 5.00977C5.65234 5.08789 5.67969 5.18359 5.67969 5.29688C5.67969 5.48568 5.60417 5.63737 5.45312 5.75195C5.30208 5.86523 5.10612 5.92188 4.86523 5.92188C4.69596 5.92188 4.54622 5.89193 4.41602 5.83203C4.28581 5.77214 4.18359 5.6888 4.10938 5.58203C4.03646 5.47396 4 5.35742 4 5.23242H4.36133C4.36784 5.35352 4.41602 5.44987 4.50586 5.52148C4.59701 5.5918 4.7168 5.62695 4.86523 5.62695C5.00195 5.62695 5.11133 5.59961 5.19336 5.54492C5.27669 5.48893 5.31836 5.41471 5.31836 5.32227Z" fill="#2B2A29"/>
<path d="M6.54297 5.88281H6.18164V3.76953H6.54297V5.88281ZM6.15234 3.20898C6.15234 3.15039 6.16992 3.10091 6.20508 3.06055C6.24154 3.02018 6.29492 3 6.36523 3C6.43555 3 6.48893 3.02018 6.52539 3.06055C6.56185 3.10091 6.58008 3.15039 6.58008 3.20898C6.58008 3.26758 6.56185 3.31641 6.52539 3.35547C6.48893 3.39453 6.43555 3.41406 6.36523 3.41406C6.29492 3.41406 6.24154 3.39453 6.20508 3.35547C6.16992 3.31641 6.15234 3.26758 6.15234 3.20898Z" fill="#2B2A29"/>
<path d="M7.46289 3.76953L7.47266 4.00391C7.6276 3.82161 7.83659 3.73047 8.09961 3.73047C8.39518 3.73047 8.59635 3.84375 8.70312 4.07031C8.77344 3.96875 8.86458 3.88672 8.97656 3.82422C9.08984 3.76172 9.22331 3.73047 9.37695 3.73047C9.84049 3.73047 10.0762 3.97591 10.084 4.4668V5.88281H9.72266V4.48828C9.72266 4.33724 9.68815 4.22461 9.61914 4.15039C9.55013 4.07487 9.43424 4.03711 9.27148 4.03711C9.13737 4.03711 9.02604 4.07747 8.9375 4.1582C8.84896 4.23763 8.79753 4.34505 8.7832 4.48047V5.88281H8.41992V4.49805C8.41992 4.19076 8.26953 4.03711 7.96875 4.03711C7.73177 4.03711 7.56966 4.13802 7.48242 4.33984V5.88281H7.12109V3.76953H7.46289Z" fill="#2B2A29"/>
</svg>
