<svg width="20" height="18" viewBox="0 0 20 18" fill="none" xmlns="http://www.w3.org/2000/svg">
<path d="M4.72973 17.5122V17.2622C4.72202 17.2622 4.71432 17.2626 4.70664 17.2633L4.72973 17.5122ZM3.52027 6.75972C3.52027 6.62165 3.40834 6.50972 3.27027 6.50972C3.1322 6.50972 3.02027 6.62165 3.02027 6.75972H3.52027ZM15.4324 17.5122L15.4555 17.2633C15.4478 17.2626 15.4401 17.2622 15.4324 17.2622V17.5122ZM17.1419 6.75972C17.1419 6.62165 17.03 6.50972 16.8919 6.50972C16.7538 6.50972 16.6419 6.62165 16.6419 6.75972H17.1419ZM18.83 8.92811C18.9312 9.022 19.0894 9.01604 19.1833 8.9148C19.2772 8.81356 19.2712 8.65538 19.17 8.5615L18.83 8.92811ZM10.0811 0.473633L10.2511 0.290325C10.1558 0.201989 10.0088 0.201329 9.91274 0.288806L10.0811 0.473633ZM0.831658 8.55998C0.729581 8.65295 0.722201 8.81107 0.815174 8.91315C0.908146 9.01522 1.06627 9.0226 1.16834 8.92963L0.831658 8.55998ZM4.70664 17.2633C4.41667 17.2902 4.11496 17.2825 3.8927 17.1665C3.78784 17.1118 3.6993 17.0322 3.63461 16.9126C3.56863 16.7906 3.52027 16.6133 3.52027 16.3543H3.02027C3.02027 16.6743 3.08001 16.9381 3.19478 17.1504C3.31084 17.365 3.47567 17.5129 3.66135 17.6098C4.02017 17.7971 4.44819 17.7894 4.75282 17.7612L4.70664 17.2633ZM3.52027 16.3543V6.75972H3.02027V16.3543H3.52027ZM15.4093 17.7612C15.714 17.7894 16.142 17.7971 16.5008 17.6098C16.6865 17.5129 16.8513 17.365 16.9674 17.1504C17.0821 16.9381 17.1419 16.6743 17.1419 16.3543H16.6419C16.6419 16.6133 16.5935 16.7906 16.5276 16.9126C16.4629 17.0322 16.3743 17.1118 16.2695 17.1665C16.0472 17.2825 15.7455 17.2902 15.4555 17.2633L15.4093 17.7612ZM17.1419 16.3543V6.75972H16.6419V16.3543H17.1419ZM19.17 8.5615L10.2511 0.290325L9.91109 0.656941L18.83 8.92811L19.17 8.5615ZM1.16834 8.92963L10.2494 0.658459L9.91274 0.288806L0.831658 8.55998L1.16834 8.92963ZM15.4324 17.2622H4.72973V17.7622H15.4324V17.2622Z" fill="#2B2A29"/>
<path d="M12.4558 6.93698C13.1913 7.45549 13.7439 8.19346 14.0344 9.0452C14.3249 9.89695 14.3384 10.8188 14.073 11.6787C13.8076 12.5386 13.2769 13.2924 12.5569 13.8323C11.8369 14.3721 10.9645 14.6703 10.0647 14.684C9.16488 14.6978 8.28379 14.4265 7.5476 13.9089C6.81142 13.3913 6.2579 12.654 5.96631 11.8027C5.67473 10.9513 5.66004 10.0295 5.92434 9.16927C6.18865 8.30904 6.7184 7.55451 7.43772 7.01374L7.90477 7.63501C7.31659 8.07719 6.88343 8.69415 6.66731 9.39755C6.45119 10.1009 6.4632 10.8547 6.70163 11.5508C6.94005 12.247 7.39266 12.8498 7.99462 13.273C8.59659 13.6963 9.31704 13.9181 10.0528 13.9069C10.7886 13.8956 11.5019 13.6518 12.0906 13.2104C12.6794 12.769 13.1133 12.1526 13.3303 11.4494C13.5474 10.7463 13.5363 9.99256 13.2988 9.2961C13.0613 8.59965 12.6094 7.99622 12.008 7.57224L12.4558 6.93698Z" fill="#2B2A29"/>
<line x1="10.0254" y1="6.6582" x2="10.0254" y2="10.395" stroke="#2B2A29" stroke-linecap="round"/>
</svg>
