<svg width="23" height="7" viewBox="0 0 23 7" fill="none" xmlns="http://www.w3.org/2000/svg">
<path fill-rule="evenodd" clip-rule="evenodd" d="M0 0.48C0 0.48 1.008 -0.0480003 1.968 0.0239997C2.544 0.0479997 2.664 0.264 2.664 0.264V0.648C2.664 0.648 2.232 0.816 1.584 0.816C0.959997 0.816 0 0.48 0 0.48ZM6.48 0.336C6.48 0.336 5.544 0 4.872 0C4.224 0 3.792 0.168 3.792 0.168V0.552C3.792 0.552 3.912 0.768 4.488 0.792C5.448 0.864 6.48 0.336 6.48 0.336Z" fill="#2B2A29"/>
<path fill-rule="evenodd" clip-rule="evenodd" d="M22.5601 0.48C22.5601 0.48 21.6241 0.816 20.9521 0.816C20.3041 0.816 19.8721 0.648 19.8721 0.648V0.264C19.8721 0.264 19.9921 0.0479997 20.5681 0.0239997C21.5281 -0.0480003 22.5601 0.48 22.5601 0.48ZM16.0801 0.336C16.0801 0.336 17.0881 0.864 18.0481 0.792C18.6241 0.768 18.7441 0.552 18.7441 0.552V0.168C18.7441 0.168 18.3121 0 17.6641 0C17.0401 0 16.0801 0.336 16.0801 0.336Z" fill="#2B2A29"/>
<path fill-rule="evenodd" clip-rule="evenodd" d="M2.92741 1.42908V0.52782C2.92741 0.35982 3.07141 0.21582 3.23941 0.21582C3.40741 0.21582 3.55141 0.35982 3.55141 0.52782V1.42464C5.06561 1.43973 7.22271 1.30688 8.90339 0.93582C8.9573 0.92234 9.02639 0.90129 9.10632 0.87692C9.16872 0.8579 9.23775 0.83686 9.31139 0.81582C9.83937 0.64782 10.6554 0.40782 11.2794 0.40782C11.9034 0.40782 12.7194 0.64782 13.2474 0.81582C13.3211 0.83686 13.3901 0.85791 13.4525 0.87693C13.5325 0.9013 13.6015 0.92234 13.6554 0.93582C15.3557 1.32819 17.5113 1.44338 19.0074 1.42525V0.52782C19.0074 0.35982 19.1514 0.21582 19.3194 0.21582C19.4874 0.21582 19.6314 0.35982 19.6314 0.52782V1.42908C19.9607 1.47356 20.2988 1.62715 20.5194 1.84782C20.6874 2.01582 20.7834 2.23182 20.7834 2.42382C20.7834 2.44782 20.5674 6.38382 19.4394 6.38382C18.8874 6.38382 18.5754 5.51982 18.2154 2.99982V2.97582C17.1354 2.63982 16.0794 2.71182 14.9514 3.23982V3.88782C14.9514 4.34382 14.5674 4.72782 14.1114 4.72782H8.44739C7.96739 4.72782 7.60739 4.34382 7.60739 3.88782V3.23982C6.47939 2.71182 5.42339 2.61582 4.34339 2.97582V2.99982C3.98339 5.51982 3.67139 6.38382 3.11939 6.38382C1.99139 6.38382 1.77539 2.44782 1.77539 2.42382C1.77539 2.20782 1.87139 2.01582 2.03939 1.84782C2.26007 1.62715 2.59812 1.47355 2.92741 1.42908ZM2.47139 2.25582C2.61539 2.11182 2.87939 1.99182 3.09539 1.99182C4.63139 2.03982 7.10339 1.91982 9.04739 1.48782C9.08712 1.47789 9.13507 1.46385 9.19123 1.4474C9.27076 1.4241 9.36692 1.39594 9.47937 1.36782C9.53117 1.35303 9.58577 1.33722 9.64257 1.32076C10.1387 1.17704 10.8057 0.98382 11.2794 0.98382C11.8074 0.98382 12.5754 1.19982 13.0314 1.36782C13.1994 1.41582 13.3674 1.46382 13.4634 1.48782C15.3834 1.91982 17.8554 2.03982 19.3914 1.99182C19.6074 1.99182 19.8954 2.11182 20.0394 2.25582C20.0874 2.30382 20.1354 2.35182 20.1354 2.42382C20.1354 3.26382 19.7514 5.42382 19.4154 5.78382C19.2954 5.61582 19.0554 5.03982 18.7674 2.95182L18.7434 2.73582C18.7194 2.61582 18.6474 2.54382 18.5514 2.49582C17.2074 1.99182 15.8874 2.08782 14.4954 2.80782C14.3994 2.85582 14.3274 2.95182 14.3274 3.07182V3.91182C14.3274 4.03182 14.2314 4.15182 14.0874 4.15182H8.42339C8.30339 4.15182 8.18339 4.05582 8.18339 3.91182V3.07182C8.18339 2.95182 8.11139 2.85582 8.01539 2.80782C6.62339 2.11182 5.30339 1.99182 3.95939 2.49582C3.86339 2.54382 3.79139 2.61582 3.76739 2.73582L3.74339 2.95182C3.45539 5.03982 3.21539 5.61582 3.09539 5.78382C2.75939 5.42382 2.37539 3.23982 2.37539 2.42382C2.37539 2.35182 2.42339 2.30382 2.47139 2.25582Z" fill="#2B2A29"/>
</svg>
