<svg width="12" height="17" viewBox="0 0 12 17" fill="none" xmlns="http://www.w3.org/2000/svg">
<path d="M3.25 6V15H3.75V6H3.25ZM3.25 15C3.25 15.2067 3.30995 15.5111 3.49712 15.7711C3.69347 16.0438 4.01852 16.25 4.5 16.25V15.75C4.18148 15.75 4.00653 15.6229 3.90288 15.4789C3.79005 15.3222 3.75 15.1267 3.75 15H3.25ZM3.75 6C3.75 5.87334 3.79005 5.67778 3.90288 5.52108C4.00653 5.37712 4.18148 5.25 4.5 5.25V4.75C4.01852 4.75 3.69347 4.95622 3.49712 5.22892C3.30995 5.48888 3.25 5.79333 3.25 6H3.75ZM5.25 6V15H5.75V6H5.25ZM5.25 15C5.25 15.1267 5.20995 15.3222 5.09712 15.4789C4.99347 15.6229 4.81852 15.75 4.5 15.75V16.25C4.98148 16.25 5.30653 16.0438 5.50288 15.7711C5.69005 15.5111 5.75 15.2067 5.75 15H5.25ZM5.75 6C5.75 5.79333 5.69005 5.48888 5.50288 5.22892C5.30653 4.95622 4.98148 4.75 4.5 4.75V5.25C4.81852 5.25 4.99347 5.37712 5.09712 5.52108C5.20995 5.67778 5.25 5.87334 5.25 6H5.75Z" fill="#2B2A29"/>
<path d="M0.25 6V15H0.75V6H0.25ZM0.25 15C0.25 15.2067 0.309945 15.5111 0.497116 15.7711C0.693466 16.0438 1.01852 16.25 1.5 16.25V15.75C1.18148 15.75 1.00653 15.6229 0.902884 15.4789C0.790055 15.3222 0.75 15.1267 0.75 15H0.25ZM0.75 6C0.75 5.87334 0.790055 5.67778 0.902884 5.52108C1.00653 5.37712 1.18148 5.25 1.5 5.25V4.75C1.01852 4.75 0.693466 4.95622 0.497116 5.22892C0.309945 5.48888 0.25 5.79333 0.25 6H0.75ZM2.25 6V15H2.75V6H2.25ZM2.25 15C2.25 15.1267 2.20995 15.3222 2.09712 15.4789C1.99347 15.6229 1.81852 15.75 1.5 15.75V16.25C1.98148 16.25 2.30653 16.0438 2.50288 15.7711C2.69005 15.5111 2.75 15.2067 2.75 15H2.25ZM2.75 6C2.75 5.79333 2.69005 5.48888 2.50288 5.22892C2.30653 4.95622 1.98148 4.75 1.5 4.75V5.25C1.81852 5.25 1.99347 5.37712 2.09712 5.52108C2.20995 5.67778 2.25 5.87334 2.25 6H2.75Z" fill="#2B2A29"/>
<path d="M6.25 6V15H6.75V6H6.25ZM6.25 15C6.25 15.2067 6.30995 15.5111 6.49712 15.7711C6.69347 16.0438 7.01852 16.25 7.5 16.25V15.75C7.18148 15.75 7.00653 15.6229 6.90288 15.4789C6.79005 15.3222 6.75 15.1267 6.75 15H6.25ZM6.75 6C6.75 5.87334 6.79005 5.67778 6.90288 5.52108C7.00653 5.37712 7.18148 5.25 7.5 5.25V4.75C7.01852 4.75 6.69347 4.95622 6.49712 5.22892C6.30995 5.48888 6.25 5.79333 6.25 6H6.75ZM8.25 6V15H8.75V6H8.25ZM8.25 15C8.25 15.1267 8.20995 15.3222 8.09712 15.4789C7.99347 15.6229 7.81852 15.75 7.5 15.75V16.25C7.98148 16.25 8.30653 16.0438 8.50288 15.7711C8.69005 15.5111 8.75 15.2067 8.75 15H8.25ZM8.75 6C8.75 5.79333 8.69005 5.48888 8.50288 5.22892C8.30653 4.95622 7.98148 4.75 7.5 4.75V5.25C7.81852 5.25 7.99347 5.37712 8.09712 5.52108C8.20995 5.67778 8.25 5.87334 8.25 6H8.75Z" fill="#2B2A29"/>
<path d="M9.25 6V15H9.75V6H9.25ZM9.25 15C9.25 15.2067 9.30995 15.5111 9.49712 15.7711C9.69347 16.0438 10.0185 16.25 10.5 16.25V15.75C10.1815 15.75 10.0065 15.6229 9.90288 15.4789C9.79005 15.3222 9.75 15.1267 9.75 15H9.25ZM9.75 6C9.75 5.87334 9.79005 5.67778 9.90288 5.52108C10.0065 5.37712 10.1815 5.25 10.5 5.25V4.75C10.0185 4.75 9.69347 4.95622 9.49712 5.22892C9.30995 5.48888 9.25 5.79333 9.25 6H9.75ZM11.25 6V15H11.75V6H11.25ZM11.25 15C11.25 15.1267 11.2099 15.3222 11.0971 15.4789C10.9935 15.6229 10.8185 15.75 10.5 15.75V16.25C10.9815 16.25 11.3065 16.0438 11.5029 15.7711C11.6901 15.5111 11.75 15.2067 11.75 15H11.25ZM11.75 6C11.75 5.79333 11.6901 5.48888 11.5029 5.22892C11.3065 4.95622 10.9815 4.75 10.5 4.75V5.25C10.8185 5.25 10.9935 5.37712 11.0971 5.52108C11.2099 5.67778 11.25 5.87334 11.25 6H11.75Z" fill="#2B2A29"/>
<path d="M4.33656 0.0443601C4.27101 -0.0134292 4.16319 -0.0147943 4.09496 0.0404923C4.02673 0.0960064 4.02432 0.188151 4.08907 0.246623C4.11743 0.272104 4.77669 0.884807 4.06553 1.90681C3.70245 2.42828 3.54781 2.80755 3.56359 3.13654C3.57911 3.45689 3.74526 3.7001 3.95583 4.00816C3.99061 4.05889 4.02673 4.11191 4.06366 4.16742C4.09523 4.21474 4.15329 4.24136 4.21322 4.24136C4.24185 4.24136 4.27101 4.23522 4.29777 4.22225C4.38017 4.18244 4.40934 4.09348 4.36252 4.02317C4.32479 3.96675 4.28814 3.91283 4.25282 3.86118C3.86192 3.28943 3.68373 3.0287 4.36091 2.05538C4.80051 1.42379 4.77509 0.91484 4.67609 0.599046C4.56693 0.249808 4.34593 0.0525507 4.33656 0.0443601Z" fill="#2B2A29"/>
<path d="M2.27406 0.0443601C2.20851 -0.0134292 2.10069 -0.0147943 2.03246 0.0404923C1.96423 0.0960064 1.96182 0.188151 2.02657 0.246623C2.05493 0.272104 2.71419 0.884807 2.00303 1.90681C1.63995 2.42828 1.48531 2.80755 1.50109 3.13654C1.51661 3.45689 1.68276 3.7001 1.89333 4.00816C1.92811 4.05889 1.96423 4.11191 2.00116 4.16742C2.03273 4.21474 2.09079 4.24136 2.15072 4.24136C2.17935 4.24136 2.20851 4.23522 2.23527 4.22225C2.31767 4.18244 2.34684 4.09348 2.30002 4.02317C2.26229 3.96675 2.22564 3.91283 2.19032 3.86118C1.79942 3.28943 1.62123 3.0287 2.29841 2.05538C2.73801 1.42379 2.71259 0.91484 2.61359 0.599046C2.50443 0.249808 2.28343 0.0525507 2.27406 0.0443601Z" fill="#2B2A29"/>
<path d="M8.04211 3.19241C8.05763 3.51275 8.22378 3.75597 8.43434 4.06403C8.46912 4.11476 8.50524 4.16777 8.54216 4.22329C8.57373 4.27061 8.63179 4.29723 8.69172 4.29723C8.72035 4.29723 8.74951 4.29109 8.77627 4.27812C8.85867 4.23831 8.88784 4.14935 8.84102 4.07904C8.80329 4.02262 8.76664 3.9687 8.73132 3.91705C8.34043 3.3453 8.16224 3.08456 8.83941 2.11125C9.279 1.47966 9.25358 0.970702 9.15459 0.654908C9.04542 0.305669 8.82443 0.108412 8.81506 0.100221C8.74925 0.0422042 8.64035 0.0406116 8.57239 0.0968084C8.50417 0.152778 8.5023 0.245377 8.56838 0.303167C8.57534 0.309309 9.26134 0.932024 8.54403 1.96268C8.18097 2.48437 8.02632 2.86365 8.04211 3.19241Z" fill="#2B2A29"/>
<path d="M10.7258 4.22308C10.7573 4.27041 10.8154 4.29703 10.8753 4.29703C10.904 4.29703 10.9331 4.29088 10.9599 4.27792C11.0423 4.2381 11.0715 4.14914 11.0246 4.07884C10.9869 4.02241 10.9503 3.96849 10.9149 3.91685C10.524 3.3451 10.3458 3.08414 11.023 2.11105C11.4626 1.47946 11.4372 0.970504 11.3382 0.65471C11.229 0.305472 11.008 0.108215 10.9987 0.100024C10.9331 0.0422348 10.8253 0.0408697 10.7571 0.0961563C10.6888 0.15167 10.6864 0.243815 10.7512 0.302287C10.7795 0.327769 11.4388 0.940471 10.7276 1.96248C10.3646 2.48395 10.2099 2.86322 10.2257 3.19221C10.2412 3.51255 10.4076 3.75576 10.6179 4.06382C10.6527 4.11479 10.6888 4.16757 10.7258 4.22308Z" fill="#2B2A29"/>
<path d="M5.80581 3.19221C5.82133 3.51255 5.98748 3.75576 6.19805 4.06382C6.23283 4.11456 6.26895 4.16757 6.30587 4.22308C6.33745 4.27041 6.3955 4.29703 6.45544 4.29703C6.48407 4.29703 6.51323 4.29088 6.53998 4.27792C6.62239 4.2381 6.65155 4.14914 6.60473 4.07884C6.56701 4.02241 6.53035 3.96849 6.49503 3.91685C6.10414 3.3451 5.92595 3.08414 6.60313 2.11105C7.04272 1.47946 7.0173 0.970504 6.91831 0.65471C6.80914 0.305472 6.58814 0.108215 6.57878 0.100024C6.51323 0.0422348 6.4054 0.0408697 6.33718 0.0961563C6.26895 0.15167 6.26654 0.243815 6.33129 0.302287C6.35965 0.327769 7.01891 0.940471 6.30775 1.96248C5.94467 2.48417 5.78976 2.86344 5.80581 3.19221Z" fill="#2B2A29"/>
</svg>
