<svg width="38" height="34" viewBox="0 0 38 34" fill="none" xmlns="http://www.w3.org/2000/svg">
<path d="M34 33.125H4C3.20435 33.125 2.44129 32.8089 1.87868 32.2463C1.31607 31.6837 1 30.9206 1 30.125V9.125C1 8.32935 1.31607 7.56629 1.87868 7.00368C2.44129 6.44107 3.20435 6.125 4 6.125H9.9989L12.9989 1.625H24.9989L27.9989 6.125H34C34.7956 6.125 35.5587 6.44107 36.1213 7.00368C36.6839 7.56629 37 8.32935 37 9.125V30.125C37 30.9206 36.6839 31.6837 36.1213 32.2463C35.5587 32.8089 34.7956 33.125 34 33.125Z" stroke="#2B2A29" stroke-width="1.5" stroke-linecap="round" stroke-linejoin="round"/>
<path d="M19 25.625C22.7279 25.625 25.75 22.6029 25.75 18.875C25.75 15.1471 22.7279 12.125 19 12.125C15.2721 12.125 12.25 15.1471 12.25 18.875C12.25 22.6029 15.2721 25.625 19 25.625Z" stroke="#2B2A29" stroke-width="1.5" stroke-linecap="round" stroke-linejoin="round"/>
</svg>
