<svg width="38" height="35" viewBox="0 0 38 35" fill="none" xmlns="http://www.w3.org/2000/svg">
<path d="M32.75 4H5.25C4.55964 4 4 4.60442 4 5.35V29.65C4 30.3956 4.55964 31 5.25 31H32.75C33.4404 31 34 30.3956 34 29.65V5.35C34 4.60442 33.4404 4 32.75 4Z" stroke="#2B2A29" stroke-width="1.5" stroke-linecap="round" stroke-linejoin="round"/>
<path d="M16.7083 8H10.2917C10.1306 8 10 8.1567 10 8.35V14.65C10 14.8433 10.1306 15 10.2917 15H16.7083C16.8694 15 17 14.8433 17 14.65V8.35C17 8.1567 16.8694 8 16.7083 8Z" stroke="#2B2A29" stroke-width="1.5" stroke-linecap="round" stroke-linejoin="round"/>
<path d="M27.7083 8H21.2917C21.1306 8 21 8.1567 21 8.35V14.65C21 14.8433 21.1306 15 21.2917 15H27.7083C27.8694 15 28 14.8433 28 14.65V8.35C28 8.1567 27.8694 8 27.7083 8Z" stroke="#2B2A29" stroke-width="1.5" stroke-linecap="round" stroke-linejoin="round"/>
<path d="M27.7083 20H21.2917C21.1306 20 21 20.1567 21 20.35V26.65C21 26.8433 21.1306 27 21.2917 27H27.7083C27.8694 27 28 26.8433 28 26.65V20.35C28 20.1567 27.8694 20 27.7083 20Z" stroke="#2B2A29" stroke-width="1.5" stroke-linecap="round" stroke-linejoin="round"/>
<path d="M16.7083 20H10.2917C10.1306 20 10 20.1567 10 20.35V26.65C10 26.8433 10.1306 27 10.2917 27H16.7083C16.8694 27 17 26.8433 17 26.65V20.35C17 20.1567 16.8694 20 16.7083 20Z" stroke="#2B2A29" stroke-width="1.5" stroke-linecap="round" stroke-linejoin="round"/>
<path d="M11 4L11 1" stroke="#2B2A29" stroke-width="1.5" stroke-linecap="round" stroke-linejoin="round"/>
<path d="M11 34L11 31" stroke="#2B2A29" stroke-width="1.5" stroke-linecap="round" stroke-linejoin="round"/>
<path d="M37 25L34 25" stroke="#2B2A29" stroke-width="1.5" stroke-linecap="round" stroke-linejoin="round"/>
<path d="M4 25L1 25" stroke="#2B2A29" stroke-width="1.5" stroke-linecap="round" stroke-linejoin="round"/>
<path d="M15 4L15 1" stroke="#2B2A29" stroke-width="1.5" stroke-linecap="round" stroke-linejoin="round"/>
<path d="M15 34L15 31" stroke="#2B2A29" stroke-width="1.5" stroke-linecap="round" stroke-linejoin="round"/>
<path d="M37 21L34 21" stroke="#2B2A29" stroke-width="1.5" stroke-linecap="round" stroke-linejoin="round"/>
<path d="M4 21L1 21" stroke="#2B2A29" stroke-width="1.5" stroke-linecap="round" stroke-linejoin="round"/>
<path d="M19 4L19 1" stroke="#2B2A29" stroke-width="1.5" stroke-linecap="round" stroke-linejoin="round"/>
<path d="M19 34L19 31" stroke="#2B2A29" stroke-width="1.5" stroke-linecap="round" stroke-linejoin="round"/>
<path d="M37 17L34 17" stroke="#2B2A29" stroke-width="1.5" stroke-linecap="round" stroke-linejoin="round"/>
<path d="M4 17L1 17" stroke="#2B2A29" stroke-width="1.5" stroke-linecap="round" stroke-linejoin="round"/>
<path d="M23 4L23 1" stroke="#2B2A29" stroke-width="1.5" stroke-linecap="round" stroke-linejoin="round"/>
<path d="M23 34L23 31" stroke="#2B2A29" stroke-width="1.5" stroke-linecap="round" stroke-linejoin="round"/>
<path d="M37 13L34 13" stroke="#2B2A29" stroke-width="1.5" stroke-linecap="round" stroke-linejoin="round"/>
<path d="M4 13L1 13" stroke="#2B2A29" stroke-width="1.5" stroke-linecap="round" stroke-linejoin="round"/>
<path d="M27 4L27 1" stroke="#2B2A29" stroke-width="1.5" stroke-linecap="round" stroke-linejoin="round"/>
<path d="M27 34L27 31" stroke="#2B2A29" stroke-width="1.5" stroke-linecap="round" stroke-linejoin="round"/>
<path d="M37 9L34 9" stroke="#2B2A29" stroke-width="1.5" stroke-linecap="round" stroke-linejoin="round"/>
<path d="M4 9L1 9" stroke="#2B2A29" stroke-width="1.5" stroke-linecap="round" stroke-linejoin="round"/>
</svg>
