<svg width="40" height="40" viewBox="0 0 40 40" fill="none" xmlns="http://www.w3.org/2000/svg">
<path d="M33.75 6H6.25C5.55964 6 5 6.60442 5 7.35V31.65C5 32.3956 5.55964 33 6.25 33H33.75C34.4404 33 35 32.3956 35 31.65V7.35C35 6.60442 34.4404 6 33.75 6Z" stroke="#2B2A29" stroke-width="1.5" stroke-linecap="round" stroke-linejoin="round"/>
<path d="M12 6L12 3" stroke="#2B2A29" stroke-width="1.5" stroke-linecap="round" stroke-linejoin="round"/>
<path d="M12 36L12 33" stroke="#2B2A29" stroke-width="1.5" stroke-linecap="round" stroke-linejoin="round"/>
<path d="M38 27L35 27" stroke="#2B2A29" stroke-width="1.5" stroke-linecap="round" stroke-linejoin="round"/>
<path d="M5 27L2 27" stroke="#2B2A29" stroke-width="1.5" stroke-linecap="round" stroke-linejoin="round"/>
<path d="M16 6L16 3" stroke="#2B2A29" stroke-width="1.5" stroke-linecap="round" stroke-linejoin="round"/>
<path d="M16 36L16 33" stroke="#2B2A29" stroke-width="1.5" stroke-linecap="round" stroke-linejoin="round"/>
<path d="M38 23L35 23" stroke="#2B2A29" stroke-width="1.5" stroke-linecap="round" stroke-linejoin="round"/>
<path d="M5 23L2 23" stroke="#2B2A29" stroke-width="1.5" stroke-linecap="round" stroke-linejoin="round"/>
<path d="M20 6L20 3" stroke="#2B2A29" stroke-width="1.5" stroke-linecap="round" stroke-linejoin="round"/>
<path d="M20 36L20 33" stroke="#2B2A29" stroke-width="1.5" stroke-linecap="round" stroke-linejoin="round"/>
<path d="M38 19L35 19" stroke="#2B2A29" stroke-width="1.5" stroke-linecap="round" stroke-linejoin="round"/>
<path d="M5 19L2 19" stroke="#2B2A29" stroke-width="1.5" stroke-linecap="round" stroke-linejoin="round"/>
<path d="M24 6L24 3" stroke="#2B2A29" stroke-width="1.5" stroke-linecap="round" stroke-linejoin="round"/>
<path d="M24 36L24 33" stroke="#2B2A29" stroke-width="1.5" stroke-linecap="round" stroke-linejoin="round"/>
<path d="M38 15L35 15" stroke="#2B2A29" stroke-width="1.5" stroke-linecap="round" stroke-linejoin="round"/>
<path d="M5 15L2 15" stroke="#2B2A29" stroke-width="1.5" stroke-linecap="round" stroke-linejoin="round"/>
<path d="M28 6L28 3" stroke="#2B2A29" stroke-width="1.5" stroke-linecap="round" stroke-linejoin="round"/>
<path d="M28 36L28 33" stroke="#2B2A29" stroke-width="1.5" stroke-linecap="round" stroke-linejoin="round"/>
<path d="M38 11L35 11" stroke="#2B2A29" stroke-width="1.5" stroke-linecap="round" stroke-linejoin="round"/>
<path d="M5 11L2 11" stroke="#2B2A29" stroke-width="1.5" stroke-linecap="round" stroke-linejoin="round"/>
<path d="M14.3025 21.0281H15.7656C15.7188 21.6016 15.5627 22.113 15.2974 22.5622C15.0321 23.0074 14.6595 23.3583 14.1796 23.615C13.6997 23.8717 13.1163 24 12.4296 24C11.9029 24 11.4288 23.9037 11.0074 23.7112C10.5861 23.5147 10.2251 23.238 9.92471 22.881C9.62428 22.5201 9.39408 22.0849 9.2341 21.5755C9.07803 21.0662 9 20.4967 9 19.867V19.139C9 18.5094 9.07999 17.9398 9.23996 17.4305C9.40383 16.9211 9.63794 16.486 9.94227 16.125C10.2466 15.76 10.6114 15.4813 11.0367 15.2888C11.4659 15.0963 11.9478 15 12.4823 15C13.1612 15 13.7348 15.1283 14.203 15.385C14.6712 15.6417 15.0341 15.9967 15.2916 16.4499C15.553 16.9031 15.713 17.4225 15.7715 18.008H14.3083C14.2693 17.631 14.1835 17.3082 14.0508 17.0394C13.9221 16.7707 13.7309 16.5662 13.4773 16.4258C13.2236 16.2814 12.892 16.2092 12.4823 16.2092C12.1468 16.2092 11.8541 16.2734 11.6044 16.4017C11.3547 16.5301 11.146 16.7186 10.9782 16.9672C10.8104 17.2159 10.6836 17.5227 10.5978 17.8877C10.5158 18.2487 10.4749 18.6618 10.4749 19.127V19.867C10.4749 20.3082 10.5119 20.7092 10.5861 21.0702C10.6641 21.4271 10.7811 21.734 10.9372 21.9906C11.0972 22.2473 11.3001 22.4459 11.5459 22.5862C11.7917 22.7266 12.0863 22.7968 12.4296 22.7968C12.8471 22.7968 13.1846 22.7286 13.4421 22.5922C13.7036 22.4559 13.9006 22.2574 14.0333 21.9967C14.1698 21.732 14.2596 21.4091 14.3025 21.0281Z" fill="#2B2A29"/>
<path d="M20.3365 20.613H18.569V19.4158H20.3365C20.7228 19.4158 21.0349 19.3516 21.2729 19.2233C21.511 19.0949 21.6846 18.9184 21.7938 18.6939C21.907 18.4652 21.9636 18.2045 21.9636 17.9118C21.9636 17.635 21.907 17.3763 21.7938 17.1357C21.6846 16.891 21.511 16.6945 21.2729 16.5461C21.0349 16.3977 20.7228 16.3235 20.3365 16.3235H18.569V23.8797H17.1V15.1203H20.3365C20.9959 15.1203 21.5558 15.2406 22.0162 15.4813C22.4805 15.7179 22.8336 16.0468 23.0756 16.4679C23.3175 16.885 23.4384 17.3623 23.4384 17.8997C23.4384 18.4652 23.3175 18.9505 23.0756 19.3556C22.8336 19.7607 22.4805 20.0715 22.0162 20.2881C21.5558 20.5047 20.9959 20.613 20.3365 20.613Z" fill="#2B2A29"/>
<path d="M29.5368 15.1203H31V20.9739C31 21.6397 30.8595 22.1972 30.5786 22.6464C30.2977 23.0956 29.9153 23.4345 29.4315 23.6631C28.9516 23.8877 28.4151 24 27.822 24C27.2095 24 26.6632 23.8877 26.1833 23.6631C25.7034 23.4345 25.3249 23.0956 25.0479 22.6464C24.7748 22.1972 24.6382 21.6397 24.6382 20.9739V15.1203H26.1014V20.9739C26.1014 21.3951 26.1716 21.742 26.312 22.0147C26.4525 22.2834 26.6515 22.482 26.909 22.6103C27.1665 22.7386 27.4709 22.8028 27.822 22.8028C28.1732 22.8028 28.4756 22.7386 28.7292 22.6103C28.9867 22.482 29.1857 22.2834 29.3262 22.0147C29.4666 21.742 29.5368 21.3951 29.5368 20.9739V15.1203Z" fill="#2B2A29"/>
</svg>
