<svg width="24" height="24" viewBox="0 0 24 24" fill="none" xmlns="http://www.w3.org/2000/svg">
<path d="M13.1111 16.5714H13.8611H13.1111ZM13.1111 7.42857H12.3611H13.1111ZM17.881 6.62045L18.4187 6.09764L18.4187 6.09764L17.881 6.62045ZM21.6746 10.5224L22.2123 9.9996V9.9996L21.6746 10.5224ZM3.11111 4.75H12V3.25H3.11111V4.75ZM12.3611 5.14286V16.5714H13.8611V5.14286H12.3611ZM2.75 16.5714V5.14286H1.25V16.5714H2.75ZM4.22222 16.9643H3.11111V18.4643H4.22222V16.9643ZM12 16.9643H8.66667V18.4643H12V16.9643ZM1.25 16.5714C1.25 17.5968 2.06347 18.4643 3.11111 18.4643V16.9643C2.93145 16.9643 2.75 16.8085 2.75 16.5714H1.25ZM12.3611 16.5714C12.3611 16.8085 12.1797 16.9643 12 16.9643V18.4643C13.0476 18.4643 13.8611 17.5968 13.8611 16.5714H12.3611ZM12 4.75C12.1797 4.75 12.3611 4.90583 12.3611 5.14286H13.8611C13.8611 4.11752 13.0476 3.25 12 3.25V4.75ZM3.11111 3.25C2.06347 3.25 1.25 4.11752 1.25 5.14286H2.75C2.75 4.90583 2.93145 4.75 3.11111 4.75V3.25ZM13.8611 16.5714L13.8611 7.42857L12.3611 7.42857L12.3611 16.5714H13.8611ZM14.2222 7.03571H17.0953V5.53571H14.2222V7.03571ZM21.25 11.3305V16.5714H22.75V11.3305H21.25ZM17.3432 7.14326L21.1368 11.0452L22.2123 9.9996L18.4187 6.09764L17.3432 7.14326ZM15.3333 16.9643H14.2222V18.4643H15.3333V16.9643ZM20.8889 16.9643H19.7778V18.4643H20.8889V16.9643ZM22.75 11.3305C22.75 10.8352 22.5589 10.3561 22.2123 9.9996L21.1368 11.0452C21.207 11.1174 21.25 11.2196 21.25 11.3305H22.75ZM17.0953 7.03571C17.1842 7.03571 17.2738 7.07182 17.3432 7.14326L18.4187 6.09764C18.0714 5.74043 17.5958 5.53571 17.0953 5.53571V7.03571ZM12.3611 16.5714C12.3611 17.5968 13.1746 18.4643 14.2222 18.4643V16.9643C14.0426 16.9643 13.8611 16.8085 13.8611 16.5714H12.3611ZM21.25 16.5714C21.25 16.8085 21.0686 16.9643 20.8889 16.9643V18.4643C21.9365 18.4643 22.75 17.5968 22.75 16.5714H21.25ZM13.8611 7.42857C13.8611 7.19155 14.0426 7.03571 14.2222 7.03571V5.53571C13.1746 5.53571 12.3611 6.40323 12.3611 7.42857H13.8611ZM7.91667 17.7143C7.91667 18.5825 7.23775 19.25 6.44444 19.25V20.75C8.10573 20.75 9.41667 19.3708 9.41667 17.7143H7.91667ZM6.44444 19.25C5.65113 19.25 4.97222 18.5825 4.97222 17.7143H3.47222C3.47222 19.3708 4.78315 20.75 6.44444 20.75V19.25ZM4.97222 17.7143C4.97222 16.8461 5.65113 16.1786 6.44444 16.1786V14.6786C4.78315 14.6786 3.47222 16.0578 3.47222 17.7143H4.97222ZM6.44444 16.1786C7.23775 16.1786 7.91667 16.8461 7.91667 17.7143H9.41667C9.41667 16.0578 8.10573 14.6786 6.44444 14.6786V16.1786ZM19.0278 17.7143C19.0278 18.5825 18.3489 19.25 17.5556 19.25V20.75C19.2168 20.75 20.5278 19.3708 20.5278 17.7143H19.0278ZM17.5556 19.25C16.7622 19.25 16.0833 18.5825 16.0833 17.7143H14.5833C14.5833 19.3708 15.8943 20.75 17.5556 20.75V19.25ZM16.0833 17.7143C16.0833 16.8461 16.7622 16.1786 17.5556 16.1786V14.6786C15.8943 14.6786 14.5833 16.0578 14.5833 17.7143H16.0833ZM17.5556 16.1786C18.3489 16.1786 19.0278 16.8461 19.0278 17.7143H20.5278C20.5278 16.0578 19.2168 14.6786 17.5556 14.6786V16.1786Z" fill="#235ED0"/>
</svg>
