<svg width="40" height="40" viewBox="0 0 40 40" fill="none" xmlns="http://www.w3.org/2000/svg">
<path d="M20 35C28.2843 35 35 28.2843 35 20C35 11.7157 28.2843 5 20 5C11.7157 5 5 11.7157 5 20C5 28.2843 11.7157 35 20 35Z" stroke="#2B2A29" stroke-width="1.5" stroke-linecap="round" stroke-linejoin="round"/>
<path d="M14.375 18.75C15.4105 18.75 16.25 17.9105 16.25 16.875C16.25 15.8395 15.4105 15 14.375 15C13.3395 15 12.5 15.8395 12.5 16.875C12.5 17.9105 13.3395 18.75 14.375 18.75Z" fill="#2B2A29"/>
<path d="M25.625 18.75C26.6605 18.75 27.5 17.9105 27.5 16.875C27.5 15.8395 26.6605 15 25.625 15C24.5895 15 23.75 15.8395 23.75 16.875C23.75 17.9105 24.5895 18.75 25.625 18.75Z" fill="#2B2A29"/>
<path d="M26.4976 23.75C25.8391 24.8903 24.892 25.8372 23.7516 26.4955C22.6112 27.1538 21.3176 27.5004 20.0008 27.5004C18.684 27.5004 17.3904 27.1539 16.25 26.4956C15.1095 25.8372 14.1625 24.8904 13.5039 23.7501" stroke="#2B2A29" stroke-width="1.5" stroke-linecap="round" stroke-linejoin="round"/>
<path d="M31 2H36.4444C36.857 2 37.2527 2.16389 37.5444 2.45562C37.8361 2.74734 38 3.14301 38 3.55557V9" stroke="#2B2A29" stroke-width="1.5" stroke-linecap="round" stroke-linejoin="round"/>
<path d="M31 38H36.4444C36.857 38 37.2527 37.8361 37.5444 37.5444C37.8361 37.2527 38 36.857 38 36.4445V31" stroke="#2B2A29" stroke-width="1.5" stroke-linecap="round" stroke-linejoin="round"/>
<path d="M9 38H3.55556C3.143 38 2.74734 37.8361 2.45561 37.5444C2.16389 37.2527 2 36.857 2 36.4445V31" stroke="#2B2A29" stroke-width="1.5" stroke-linecap="round" stroke-linejoin="round"/>
<path d="M9 2H3.55556C3.143 2 2.74734 2.16389 2.45561 2.45562C2.16389 2.74734 2 3.14301 2 3.55557V9" stroke="#2B2A29" stroke-width="1.5" stroke-linecap="round" stroke-linejoin="round"/>
</svg>
