<svg width="25" height="24" viewBox="0 0 25 24" fill="none" xmlns="http://www.w3.org/2000/svg">
<mask id="path-1-inside-1_2120_313772" fill="white">
<path d="M24.5 12C24.5 18.6274 19.1274 24 12.5 24C5.87258 24 0.5 18.6274 0.5 12C0.5 5.37258 5.87258 0 12.5 0C19.1274 0 24.5 5.37258 24.5 12Z"/>
</mask>
<path d="M23 12C23 17.799 18.299 22.5 12.5 22.5V25.5C19.9558 25.5 26 19.4558 26 12H23ZM12.5 22.5C6.70101 22.5 2 17.799 2 12H-1C-1 19.4558 5.04416 25.5 12.5 25.5V22.5ZM2 12C2 6.20101 6.70101 1.5 12.5 1.5V-1.5C5.04416 -1.5 -1 4.54416 -1 12H2ZM12.5 1.5C18.299 1.5 23 6.20101 23 12H26C26 4.54416 19.9558 -1.5 12.5 -1.5V1.5Z" fill="#05B263" mask="url(#path-1-inside-1_2120_313772)"/>
<path d="M11.9719 9.46603C11.9719 9.84194 11.9102 10.1793 11.7867 10.4783C11.6678 10.7772 11.5055 11.0331 11.2997 11.2459C11.094 11.4543 10.8562 11.615 10.5864 11.7283C10.3166 11.837 10.0332 11.8913 9.73594 11.8913C9.41587 11.8913 9.11866 11.837 8.84431 11.7283C8.57453 11.615 8.33905 11.4543 8.13786 11.2459C7.94124 11.0331 7.78578 10.7772 7.67147 10.4783C7.55716 10.1793 7.5 9.84194 7.5 9.46603C7.5 9.08107 7.55716 8.73687 7.67147 8.43342C7.78578 8.12545 7.94124 7.8673 8.13786 7.65897C8.33905 7.4461 8.57453 7.28306 8.84431 7.16984C9.11866 7.05661 9.41587 7 9.73594 7C10.056 7 10.3509 7.05661 10.6207 7.16984C10.8951 7.28306 11.1305 7.4461 11.3272 7.65897C11.5283 7.8673 11.6861 8.12545 11.8004 8.43342C11.9147 8.73687 11.9719 9.08107 11.9719 9.46603ZM10.8333 9.46603C10.8333 9.18976 10.8036 8.95652 10.7442 8.7663C10.6893 8.57156 10.6116 8.41531 10.511 8.29755C10.415 8.17527 10.2984 8.08922 10.1612 8.0394C10.0286 7.98505 9.88683 7.95788 9.73594 7.95788C9.58048 7.95788 9.43644 7.98505 9.30384 8.0394C9.17124 8.08922 9.05693 8.17527 8.96091 8.29755C8.86488 8.41531 8.78944 8.57156 8.73457 8.7663C8.6797 8.95652 8.65226 9.18976 8.65226 9.46603C8.65226 9.73777 8.6797 9.96649 8.73457 10.1522C8.78944 10.3379 8.86488 10.4896 8.96091 10.6073C9.05693 10.7206 9.17124 10.8021 9.30384 10.8519C9.43644 10.9017 9.58048 10.9266 9.73594 10.9266C9.88683 10.9266 10.0286 10.9017 10.1612 10.8519C10.2984 10.8021 10.415 10.7206 10.511 10.6073C10.6116 10.4896 10.6893 10.3379 10.7442 10.1522C10.8036 9.96649 10.8333 9.73777 10.8333 9.46603ZM15.3601 7.33967C15.4104 7.27627 15.4698 7.22192 15.5384 7.17663C15.6116 7.12681 15.7122 7.1019 15.8402 7.1019H16.9033L9.6262 16.6603C9.5759 16.7237 9.51417 16.7781 9.44102 16.8234C9.36786 16.8641 9.27869 16.8845 9.17353 16.8845H8.07613L15.3601 7.33967ZM17.5 14.5815C17.5 14.9574 17.4383 15.2948 17.3148 15.5938C17.1914 15.8927 17.0267 16.1463 16.821 16.3546C16.6152 16.563 16.3775 16.7237 16.1077 16.837C15.8379 16.9457 15.5544 17 15.2572 17C14.9371 17 14.6399 16.9457 14.3656 16.837C14.0958 16.7237 13.8603 16.563 13.6591 16.3546C13.4625 16.1463 13.307 15.8927 13.1927 15.5938C13.083 15.2948 13.0281 14.9574 13.0281 14.5815C13.0281 14.1966 13.083 13.8524 13.1927 13.5489C13.307 13.2409 13.4625 12.9805 13.6591 12.7677C13.8603 12.5548 14.0958 12.394 14.3656 12.2853C14.6399 12.1721 14.9371 12.1155 15.2572 12.1155C15.5773 12.1155 15.8745 12.1721 16.1488 12.2853C16.4232 12.394 16.6587 12.5548 16.8553 12.7677C17.0565 12.9805 17.2142 13.2409 17.3285 13.5489C17.4428 13.8524 17.5 14.1966 17.5 14.5815ZM16.3615 14.5815C16.3615 14.3053 16.3317 14.072 16.2723 13.8818C16.2174 13.687 16.1397 13.5308 16.0391 13.413C15.9385 13.2908 15.8196 13.2047 15.6824 13.1549C15.5498 13.1005 15.4081 13.0734 15.2572 13.0734C15.1063 13.0734 14.9646 13.1005 14.832 13.1549C14.6994 13.2047 14.5828 13.2908 14.4822 13.413C14.3861 13.5308 14.3107 13.687 14.2558 13.8818C14.201 14.072 14.1735 14.3053 14.1735 14.5815C14.1735 14.8533 14.201 15.082 14.2558 15.2677C14.3107 15.4534 14.3861 15.6051 14.4822 15.7228C14.5828 15.8361 14.6994 15.9176 14.832 15.9674C14.9646 16.0172 15.1063 16.0421 15.2572 16.0421C15.4081 16.0421 15.5498 16.0172 15.6824 15.9674C15.8196 15.9176 15.9385 15.8361 16.0391 15.7228C16.1397 15.6051 16.2174 15.4534 16.2723 15.2677C16.3317 15.082 16.3615 14.8533 16.3615 14.5815Z" fill="#05B263"/>
</svg>
