<svg width="21" height="20" viewBox="0 0 21 20" fill="none" xmlns="http://www.w3.org/2000/svg">
<path d="M10.5 6V19M10.5 6C10.5 6 10.5 4.50722 10.5 4C10.5 2.89543 11.3954 2 12.5 2C13.6046 2 14.5 2.89543 14.5 4C14.5 5.10457 13.6046 6 12.5 6C11.9027 6 10.5 6 10.5 6ZM10.5 6C10.5 6 10.5 4.06291 10.5 3.5C10.5 2.11929 9.38071 1 8 1C6.61929 1 5.5 2.11929 5.5 3.5C5.5 4.88071 6.61929 6 8 6C8.8178 6 10.5 6 10.5 6ZM3.5 10H17.5M3.5 10C2.39543 10 1.5 9.10457 1.5 8C1.5 6.89543 2.39543 6 3.5 6H17.5C18.6046 6 19.5 6.89543 19.5 8C19.5 9.10457 18.6046 10 17.5 10M3.5 10L3.5 17C3.5 18.1046 4.39543 19 5.5 19H15.5C16.6046 19 17.5 18.1046 17.5 17V10" stroke="#F54503" stroke-width="1.5" stroke-linecap="round" stroke-linejoin="round"/>
</svg>
