<svg width="40" height="40" viewBox="0 0 40 40" fill="none" xmlns="http://www.w3.org/2000/svg">
<path d="M28.25 2.125H11.75C10.2312 2.125 9 3.35622 9 4.875V35.125C9 36.6438 10.2312 37.875 11.75 37.875H28.25C29.7688 37.875 31 36.6438 31 35.125V4.875C31 3.35622 29.7688 2.125 28.25 2.125Z" stroke="#2B2A29" stroke-width="1.5" stroke-linecap="round" stroke-linejoin="round"/>
<path d="M9 7.625H31" stroke="#2B2A29" stroke-width="1.5" stroke-linecap="round" stroke-linejoin="round"/>
<path d="M9 32.375H31" stroke="#2B2A29" stroke-width="1.5" stroke-linecap="round" stroke-linejoin="round"/>
<path d="M27.1 12.9996C27.1 12.7235 26.8761 12.4996 26.6 12.4996L22.1 12.4996C21.8239 12.4996 21.6 12.7235 21.6 12.9996C21.6 13.2758 21.8239 13.4996 22.1 13.4996L26.1 13.4996L26.1 17.4996C26.1 17.7758 26.3239 17.9996 26.6 17.9996C26.8761 17.9996 27.1 17.7758 27.1 17.4996L27.1 12.9996ZM20.3536 19.9532L26.9536 13.3532L26.2464 12.6461L19.6464 19.2461L20.3536 19.9532Z" fill="#2B2A29"/>
<path d="M12.4996 26.6C12.4996 26.8761 12.7235 27.1 12.9996 27.1L17.4996 27.1C17.7758 27.1 17.9996 26.8761 17.9996 26.6C17.9996 26.3239 17.7758 26.1 17.4996 26.1L13.4996 26.1L13.4996 22.1C13.4996 21.8239 13.2758 21.6 12.9996 21.6C12.7235 21.6 12.4996 21.8239 12.4996 22.1L12.4996 26.6ZM19.2461 19.6464L12.6461 26.2464L13.3532 26.9536L19.9532 20.3536L19.2461 19.6464Z" fill="#2B2A29"/>
</svg>
