<svg width="138" height="44" viewBox="0 0 138 44" fill="none" xmlns="http://www.w3.org/2000/svg">
<path d="M117.572 43.25H20.4283C9.63026 43.25 0.75 33.7703 0.75 22C0.75 10.2297 9.63026 0.75 20.4283 0.75H117.572C128.371 0.75 137.25 10.2297 137.25 22C137.25 33.7703 128.371 43.25 117.572 43.25Z" fill="#404040" stroke="#F9E505" stroke-width="1.5"/>
<path d="M24.7106 14.3994H27.1937L22.3141 18.9628L27.6757 26.2753H25.3484L20.9176 20.1172L19.3481 21.5252V26.2753H17.4512V14.3994H19.3481V18.3352C19.3481 18.8437 19.0555 19.404 18.8481 19.8622L19.1584 19.9986C19.3658 19.5404 19.6072 18.9462 19.9687 18.6231L24.7106 14.3994Z" fill="white"/>
<path d="M28.7285 14.3994H30.7111V16.2648H28.7285V14.3994Z" fill="#F9E505"/>
<path d="M28.8311 17.793H30.6419V26.2755H28.8311V17.793Z" fill="white"/>
<path d="M49.8111 21.3214C49.8111 20.0493 48.8454 19.0143 47.2936 19.0143C45.7073 19.0143 44.6212 20.1678 44.6212 21.3214H49.8111ZM42.5 21.9837C42.5 19.4551 44.4658 17.5381 47.2592 17.5381C50.1213 17.5381 51.8974 19.5911 51.8793 21.9155C51.8793 22.0849 51.8793 22.4923 51.8793 22.6274H44.6031C44.6031 23.6458 45.5356 24.9861 47.4833 24.9861C48.7249 24.9861 49.4827 24.375 49.6725 23.8499H51.6899C51.4485 24.7325 50.225 26.547 47.6387 26.547C44.3109 26.547 42.5 24.5114 42.5 21.9837Z" fill="white"/>
<path d="M55.174 21.9658C55.174 23.561 56.1565 24.8674 57.9325 24.8674C59.7257 24.8674 60.6049 23.561 60.6049 21.9658C60.6049 20.3884 59.7257 19.201 57.9325 19.201C56.1565 19.201 55.174 20.3884 55.174 21.9658ZM54.9154 30.5179H53.1045V17.7929H54.9154V18.4036C54.9154 18.9121 54.6563 19.5067 54.4846 19.9988L54.8117 20.0996C54.9847 19.6253 55.0871 18.9286 55.4322 18.573C56.0708 17.9115 56.9672 17.5215 58.1223 17.5215C60.7258 17.5215 62.4674 19.4724 62.4326 22.0001C62.3814 24.4609 60.6566 26.5304 58.1391 26.5304C56.9836 26.5304 56.0876 26.1065 55.4498 25.4438C55.0871 25.0716 54.9666 24.3927 54.8117 23.9007L54.4846 24.0192C54.6563 24.4935 54.9154 25.1046 54.9154 25.614V30.5179Z" fill="white"/>
<path d="M80.7076 21.3214C80.7076 20.0493 79.7419 19.0143 78.1901 19.0143C76.6034 19.0143 75.5176 20.1678 75.5176 21.3214H80.7076ZM73.3965 21.9837C73.3965 19.4551 75.3623 17.5381 78.1556 17.5381C81.0178 17.5381 82.7934 19.5911 82.7758 21.9155C82.7758 22.0849 82.7758 22.4923 82.7758 22.6274H75.4996C75.4996 23.6458 76.4317 24.9861 78.3799 24.9861C79.6209 24.9861 80.3792 24.375 80.569 23.8499H82.5873C82.345 24.7325 81.1215 26.547 78.5348 26.547C75.2069 26.547 73.3965 24.5114 73.3965 21.9837Z" fill="white"/>
<path d="M108.065 17.8086H110.409L106.789 21.0833L111.289 26.2924H108.961L105.53 22.186L104.684 22.9331L104.702 26.2747H102.892V17.8151H104.702V19.7595C104.702 20.302 104.41 20.9304 104.168 21.4225L104.496 21.5576C104.72 21.0668 104.996 20.4384 105.409 20.0822L108.065 17.8086Z" fill="white"/>
<path d="M99.8619 17.8008H101.553V26.2616H99.8619V21.6757C99.8619 21.0273 100.147 20.2464 100.355 19.6279L100.072 19.5398C99.8619 20.143 99.6072 20.9535 99.2188 21.469L95.0123 26.2616H93.3369V17.8008H95.0123V22.4028C95.0123 23.0508 94.7435 23.8308 94.5334 24.4505L94.8185 24.5383C95.0282 23.9341 95.2829 23.1242 95.6713 22.6091L99.8619 17.8008Z" fill="white"/>
<path d="M118.715 17.7998H120.407V26.2606H118.715V21.6748C118.715 21.0263 119 20.2454 119.209 19.627L118.925 19.5388C118.715 20.1421 118.461 20.9525 118.072 21.468L113.866 26.2606H112.19V17.7998H113.866V22.4018C113.866 23.0498 113.597 23.8298 113.387 24.4496L113.672 24.5373C113.882 23.9332 114.136 23.1232 114.525 22.6081L118.715 17.7998Z" fill="white"/>
<path d="M92.252 17.8389H83.0068V19.4098H86.7341V26.2524H88.5247V19.4098H92.252V17.8389Z" fill="white"/>
<path d="M70.3108 17.8389V21.2574H65.5521V17.8389H63.7412V26.2754H65.5521V22.8283H70.3108V26.2754H72.1212V17.8389H70.3108Z" fill="white"/>
<path d="M37.1283 24.8668C35.3522 24.8668 34.3698 23.5604 34.3698 21.9652C34.3698 20.3878 35.3522 19.2004 37.1283 19.2004C38.921 19.2004 39.8007 20.3878 39.8007 21.9652C39.8007 23.5604 38.921 24.8668 37.1283 24.8668ZM39.238 17.9296C38.6743 17.6672 38.0277 17.52 37.3181 17.52C36.1626 17.52 35.2662 17.9109 34.6275 18.5724C34.2828 18.9281 34.18 19.6247 34.007 20.099L33.68 19.9969C33.8415 19.5357 34.0763 18.9854 34.105 18.4985H34.1072C34.1341 18.3535 34.1663 18.2054 34.2056 18.0538C34.285 17.745 34.421 17.4618 34.6143 17.2034C34.8063 16.9463 35.0583 16.7235 35.3712 16.5367C35.6824 16.35 36.0778 16.2314 36.5567 16.1797L38.9264 15.9478C39.8563 15.8449 40.5307 15.5578 40.9482 15.0865C41.3666 14.6166 41.6023 14.0724 41.6557 13.4531H39.9424C39.8766 13.788 39.7036 14.0329 39.4247 14.188C39.1453 14.343 38.7736 14.4464 38.3093 14.4976L36.4168 14.6913C35.6334 14.7682 34.9824 14.968 34.4647 15.2898C33.9465 15.6116 33.5312 16.0468 33.22 16.5949C32.9429 17.0792 32.7398 17.6516 32.6092 18.3118C32.6092 18.3118 32.2998 19.9048 32.3011 21.9392C32.3011 21.9444 32.2998 21.9513 32.2998 21.957V22.0195C32.3166 24.5724 34.3985 26.6362 36.9641 26.6362C38.2356 26.6362 39.3876 26.129 40.2292 25.3072C41.0687 24.4187 41.6023 23.2256 41.6283 21.9995C41.6283 21.9843 41.6283 21.9687 41.6283 21.9535C41.6147 20.2245 40.6547 18.7196 39.238 17.9296Z" fill="white"/>
</svg>
