<svg _ngcontent-rz-client-c105="" fill="none" height="26" viewBox="0 0 68 26" width="68" xmlns="http://www.w3.org/2000/svg" aria-hidden="true"><path _ngcontent-rz-client-c105="" d="m1.9347 0c-1.252938 4.0662-1.9347 8.4419-1.9347 13.0003 0 4.5581.681706 8.9336 1.93455 12.9997h64.13095c1.2528-4.0661 1.9345-8.4416 1.9345-12.9997 0-4.5584-.6818-8.9341-1.9347-13.0003z" fill="#00a046"></path><g _ngcontent-rz-client-c105="" fill="#fff"><path _ngcontent-rz-client-c105="" clip-rule="evenodd" d="m17.078 1.33191h-.0425c-.1631.28822-.3119.32838-.5328.69692-1.18 1.96555.6095 6.94202-.841 10.97707-.2918.8115-1.0773 2.5656-1.6242 2.8597-.8894.1122-1.7364-.3449-1.6938-1.1812.0519-1.0607 1.317-1.017 1.6348-1.1836-.1359-1.6171-.5339-5.20206-1.1139-6.52267-.6757-1.53794-2.529-3.63815-3.89687-3.8803l-.00118 16.86897 4.54885.0177c.1205.6143.2717 1.0041.5493 1.5333.2977.5669.4926.7618.8115 1.1835.6083.8021 1.5769 1.1836 2.2219 1.8817.3165-.5138 1.278-.9568 1.7482-1.4588.6177-.6579.7973-.8079 1.3099-1.786.1217-.2327.2068-.4252.2918-.7028.111-.3674.0402-.5079.3307-.6627l4.3552-.0342.0012-16.83004c-.5623.05079-2.0778 1.28635-2.3176 1.55803-.6059.68629-1.0867 1.29225-1.5568 2.33881-.4394.98159-1.1304 5.3805-1.095 6.5699 2.327-.1086 2.0329 2.6129-.1016 2.2833-.5386-.4547-1.2852-1.949-1.6076-2.8703-.8753-2.4959-.5824-5.53522-.4288-8.22131.1051-1.85333-.0484-2.30455-.9497-3.43498zm.6662 17.44899 1.6454.0212c-.0071-.4925-.0413-1.0619-.2705-1.4198-.8091.1807-1.2284.58-1.3749 1.3986zm-3.0263.0071 1.6596.013c-.1394-.8848-.541-1.2604-1.4588-1.4305zm1.6336 3.5235.0107-2.3246-1.3797-.013c.1831.9627.7973 2.0376 1.369 2.3376zm1.4069-.0047c.4441-.1949.6083-.5469.8812-.9461.2752-.4028.4169-.8694.4972-1.3903l-1.3796.013zm-2.2361-6.0077c.3083.0886 1.2072.5895 1.4411.8198.4902-.1595 1.2037-.6154 1.6289-.8977-.7028-1.0537-.9308-1.8215-1.5285-3.0901-.2563.4725-.4004 1.0926-.652 1.5687-.313.5906-.6332 1.0713-.8895 1.5993zm-5.1891 2.5314 3.0298-.0036.2056-1.6974c-.3532-.1972-1.01-.2339-1.5758-.58-.6803-.4146-.5292-.5303-.9721-1.2284l-.632-.0036zm10.2046-1.6986.2787 1.6868 2.9779.0012-.0071-3.4799-.6946-.0154c-.9662 1.6868-.717 1.0738-2.5549 1.8073zm1.095-4.5146c.913.7418.6083.0508 1.4552 1.5108l.6851.007.0177-8.54017c-.5433.34373-1.4481 2.00807-1.6123 2.9495-.1973 1.13161-.502 2.98727-.5457 4.07287zm-11.2925 1.5285.6851-.0071c.6013-.9958.4312-.8174 1.4695-1.5214-.0627-1.1434-.3367-2.83259-.5399-4.00672-.1736-1.00049-.6567-1.87814-1.278-2.67192l-.3414-.34255z" fill-rule="evenodd"></path><path _ngcontent-rz-client-c105="" d="m34.3359 10.6719-2.25-.5235c.4844-1.86455 1.862-2.79684 4.1329-2.79684 1.3437 0 2.3567.29688 3.039.89063.6875.58854 1.0313 1.28125 1.0313 2.07811 0 .5469-.1563 1.0417-.4688 1.4844-.3125.4375-.7812.8229-1.4062 1.1562.7604.2605 1.3307.6302 1.7109 1.1094.3802.474.5703 1.0599.5703 1.7578 0 1.0052-.3698 1.8177-1.1094 2.4375-.7343.6198-1.8359.9297-3.3047.9297-1.1979 0-2.1432-.1979-2.8359-.5937-.6927-.4011-1.2135-1.1485-1.5625-2.2422l2.1172-.6953c.2188.6875.5078 1.1328.8672 1.3359.3646.2031.8125.3047 1.3437.3047.7292 0 1.2605-.1563 1.5938-.4688.3333-.3177.5-.6797.5-1.0859 0-.4688-.1901-.8464-.5703-1.1328-.375-.2865-.9427-.4297-1.7032-.4297h-.5234v-1.7266h.2656c.7084 0 1.25-.1588 1.625-.4765s.5625-.7396.5625-1.2656c0-.4167-.1536-.76828-.4609-1.05474-.3021-.28646-.737-.42968-1.3047-.42968-.9687 0-1.5885.47916-1.8594 1.43752zm15.3203 4.1172 2.2422.7109c-.3437 1.25-.9166 2.1797-1.7187 2.7891-.7969.6041-1.8099.9062-3.0391.9062-1.5208 0-2.7708-.5182-3.75-1.5547-.9791-1.0416-1.4687-2.4635-1.4687-4.2656 0-1.9062.4922-3.38542 1.4765-4.4375.9844-1.05729 2.2787-1.58594 3.8828-1.58594 1.4011 0 2.5391.41406 3.4141 1.24219.5208.48958.9115 1.19271 1.1719 2.10935l-2.2891.5469c-.1354-.5938-.4192-1.0625-.8515-1.40625-.4271-.34375-.948-.51563-1.5625-.51563-.849 0-1.5391.30469-2.0703.91408-.5261.6094-.7891 1.5963-.7891 2.9609 0 1.4479.2604 2.4792.7812 3.0938.5209.6146 1.198.9219 2.0313.9219.6146 0 1.1432-.1954 1.5859-.586s.7604-1.0052.9531-1.8437zm2.8516-7.24222h2.586l2.6718 5.94532 2.2813-5.94532h2.414l-3.8671 8.70312c-.4219.9427-.8516 1.6615-1.2891 2.1562-.4375.4896-1.0026.7344-1.6953.7344-.6823 0-1.2162-.0442-1.6016-.1328v-1.7187c.3281.0208.625.0312.8906.0312.5365 0 .9193-.0963 1.1485-.2891.2343-.1979.4583-.6197.6719-1.2656z"></path></g></svg>