<svg width="17" height="15" viewBox="0 0 17 15" fill="none" xmlns="http://www.w3.org/2000/svg">
<path d="M8.9209 6.50293V8.65625C8.9209 9.59375 8.83301 10.4111 8.65723 11.1084C8.48145 11.7998 8.22363 12.374 7.88379 12.8311C7.5498 13.2822 7.13965 13.6191 6.65332 13.8418C6.17285 14.0645 5.62207 14.1758 5.00098 14.1758C4.50879 14.1758 4.05762 14.1055 3.64746 13.9648C3.2373 13.8242 2.87109 13.6104 2.54883 13.3232C2.23242 13.0303 1.96289 12.6641 1.74023 12.2246C1.51758 11.7852 1.34766 11.2695 1.23047 10.6777C1.11328 10.0801 1.05469 9.40625 1.05469 8.65625V6.50293C1.05469 5.55957 1.14258 4.74512 1.31836 4.05957C1.5 3.37402 1.75781 2.80566 2.0918 2.35449C2.43164 1.90332 2.84473 1.56934 3.33105 1.35254C3.81738 1.12988 4.36816 1.01855 4.9834 1.01855C5.47559 1.01855 5.92676 1.0918 6.33691 1.23828C6.75293 1.37891 7.11914 1.58984 7.43555 1.87109C7.75781 2.15234 8.02734 2.5127 8.24414 2.95215C8.4668 3.38574 8.63379 3.89844 8.74512 4.49023C8.8623 5.08203 8.9209 5.75293 8.9209 6.50293ZM7.875 8.7793V6.37109C7.875 5.79102 7.83398 5.26367 7.75195 4.78906C7.67578 4.31445 7.56152 3.89844 7.40918 3.54102C7.25684 3.18359 7.06348 2.88477 6.8291 2.64453C6.60059 2.4043 6.33105 2.22559 6.02051 2.1084C5.71582 1.98535 5.37012 1.92383 4.9834 1.92383C4.50879 1.92383 4.08984 2.02051 3.72656 2.21387C3.36914 2.40137 3.07031 2.68262 2.83008 3.05762C2.58984 3.42676 2.4082 3.88965 2.28516 4.44629C2.16797 5.00293 2.10938 5.64453 2.10938 6.37109V8.7793C2.10938 9.35352 2.14746 9.87793 2.22363 10.3525C2.2998 10.8213 2.41699 11.2373 2.5752 11.6006C2.7334 11.9639 2.92676 12.2715 3.15527 12.5234C3.38965 12.7695 3.65918 12.957 3.96387 13.0859C4.27441 13.209 4.62012 13.2705 5.00098 13.2705C5.4873 13.2705 5.90918 13.1738 6.2666 12.9805C6.62402 12.7812 6.92285 12.4912 7.16309 12.1104C7.40332 11.7236 7.58203 11.252 7.69922 10.6953C7.81641 10.1328 7.875 9.49414 7.875 8.7793Z" fill="#0AAF60"/>
<path d="M9.53711 2.63379V2.25781C9.53711 1.98763 9.59408 1.74186 9.70801 1.52051C9.82194 1.29915 9.98307 1.12174 10.1914 0.988281C10.3997 0.854818 10.6439 0.788086 10.9238 0.788086C11.2103 0.788086 11.4561 0.854818 11.6611 0.988281C11.8695 1.12174 12.0306 1.29915 12.1445 1.52051C12.2585 1.74186 12.3154 1.98763 12.3154 2.25781V2.63379C12.3154 2.89746 12.2585 3.13997 12.1445 3.36133C12.0339 3.58268 11.8743 3.76009 11.666 3.89355C11.4609 4.02702 11.2168 4.09375 10.9336 4.09375C10.6504 4.09375 10.403 4.02702 10.1914 3.89355C9.98307 3.76009 9.82194 3.58268 9.70801 3.36133C9.59408 3.13997 9.53711 2.89746 9.53711 2.63379ZM10.0059 2.25781V2.63379C10.0059 2.80632 10.0384 2.97233 10.1035 3.13184C10.1719 3.28809 10.2744 3.41667 10.4111 3.51758C10.5511 3.61849 10.7253 3.66895 10.9336 3.66895C11.1419 3.66895 11.3128 3.62012 11.4463 3.52246C11.5798 3.42155 11.679 3.29297 11.7441 3.13672C11.8125 2.97721 11.8467 2.80957 11.8467 2.63379V2.25781C11.8467 2.07878 11.8125 1.91113 11.7441 1.75488C11.679 1.59538 11.5781 1.46517 11.4414 1.36426C11.3047 1.26335 11.1322 1.21289 10.9238 1.21289C10.722 1.21289 10.5527 1.26335 10.416 1.36426C10.2793 1.46517 10.1768 1.59538 10.1084 1.75488C10.04 1.91113 10.0059 2.07878 10.0059 2.25781ZM13.1113 6.6377V6.25684C13.1113 5.98991 13.1683 5.74577 13.2822 5.52441C13.3962 5.30306 13.5573 5.12565 13.7656 4.99219C13.974 4.85872 14.2197 4.79199 14.5029 4.79199C14.7894 4.79199 15.0352 4.85872 15.2402 4.99219C15.4486 5.12565 15.6097 5.30306 15.7236 5.52441C15.8376 5.74577 15.8945 5.98991 15.8945 6.25684V6.6377C15.8945 6.90462 15.8376 7.14876 15.7236 7.37012C15.613 7.59147 15.4535 7.76888 15.2451 7.90234C15.04 8.03581 14.7959 8.10254 14.5127 8.10254C14.2262 8.10254 13.9788 8.03581 13.7705 7.90234C13.5622 7.76888 13.3994 7.59147 13.2822 7.37012C13.1683 7.14876 13.1113 6.90462 13.1113 6.6377ZM13.585 6.25684V6.6377C13.585 6.81348 13.6175 6.98112 13.6826 7.14062C13.751 7.29688 13.8535 7.42546 13.9902 7.52637C14.1302 7.62728 14.3044 7.67773 14.5127 7.67773C14.7178 7.67773 14.887 7.62891 15.0205 7.53125C15.1572 7.43034 15.2581 7.30013 15.3232 7.14062C15.3916 6.98112 15.4258 6.81348 15.4258 6.6377V6.25684C15.4258 6.07129 15.3916 5.90039 15.3232 5.74414C15.2581 5.58464 15.1572 5.45768 15.0205 5.36328C14.8838 5.26562 14.7113 5.2168 14.5029 5.2168C14.3011 5.2168 14.1302 5.26562 13.9902 5.36328C13.8535 5.45768 13.751 5.58464 13.6826 5.74414C13.6175 5.90039 13.585 6.07129 13.585 6.25684ZM14.5908 1.85254L11.1191 7.40918L10.7578 7.1748L14.2295 1.61816L14.5908 1.85254Z" fill="#0AAF60"/>
</svg>
