<svg width="15" height="15" viewBox="0 0 15 15" fill="none" xmlns="http://www.w3.org/2000/svg">
<g clip-path="url(#clip0_2695_100883)">
<path d="M5.01318 2.25255C6.0878 1.58106 7.34443 1.23241 8.62425 1.25068C9.904 1.26896 11.1494 1.65334 12.2031 2.35522C13.2566 3.0571 14.0711 4.04495 14.5433 5.19386C15.0156 6.34275 15.1245 7.60113 14.8562 8.80982C14.5881 10.0185 13.9547 11.1232 13.0364 11.9843C12.1181 12.8453 10.956 13.4241 9.69712 13.6473C8.43818 13.8705 7.13906 13.7281 5.96393 13.2383C4.78881 12.7484 3.79049 11.9329 3.09521 10.8951L8.52856 7.5L5.01318 2.25255Z" fill="#FFCF00"/>
<path d="M0.93285 10.3125C0.501472 9.60225 0.211853 8.8125 0.080525 7.98837C-0.0508019 7.16425 -0.0212649 6.32187 0.16745 5.50936C0.356164 4.69685 0.700363 3.9301 1.18039 3.2529C1.66041 2.57569 2.26687 2.00129 2.96513 1.5625L6.25 6.97113L0.93285 10.3125Z" fill="#00B000"/>
</g>
<defs>
<clipPath id="clip0_2695_100883">
<rect width="15" height="15" fill="white"/>
</clipPath>
</defs>
</svg>
