<svg width="22" height="24" viewBox="0 0 22 24" fill="none" xmlns="http://www.w3.org/2000/svg">
<path d="M18.0711 17.2635C16.8064 18.4683 14.0511 21.0932 12.3778 22.6874C11.6053 23.4233 10.3945 23.4232 9.62206 22.6873C7.97686 21.1199 5.27869 18.5494 3.92893 17.2635C0.0236892 13.543 0.0236892 7.51086 3.92893 3.79037C7.83418 0.0698773 14.1658 0.0698773 18.0711 3.79037C21.9763 7.51086 21.9763 13.543 18.0711 17.2635Z" stroke="#2B2A29" stroke-width="1.5" stroke-linecap="round" stroke-linejoin="round"/>
<path d="M14.75 10.5269C14.75 12.5 13.0711 14.0995 11 14.0995C8.92893 14.0995 7.25 12.5 7.25 10.5269C7.25 8.55382 8.92893 6.95432 11 6.95432C13.0711 6.95432 14.75 8.55382 14.75 10.5269Z" stroke="#2B2A29" stroke-width="1.5" stroke-linecap="round" stroke-linejoin="round"/>
</svg>
