<svg width="25" height="22" viewBox="0 0 25 22" fill="none" xmlns="http://www.w3.org/2000/svg">
<path d="M4.65927 5.77679L19.3963 1.58794" stroke="#F9E505" stroke-width="1.3" stroke-linecap="round" stroke-linejoin="round"/>
<circle cx="12.004" cy="3.40521" r="2" transform="rotate(-6.38769 12.004 3.40521)" fill="#F9E505"/>
<path d="M9 14.4048L5 7.40479L1 14.4048" stroke="#F9E505" stroke-width="1.3" stroke-linecap="round" stroke-linejoin="round"/>
<path d="M23.167 10.4048L19.167 3.40479L15.167 10.4048" stroke="#F9E505" stroke-width="1.3" stroke-linecap="round" stroke-linejoin="round"/>
<path d="M10 16.4048H10.65C10.65 16.0458 10.359 15.7548 10 15.7548V16.4048ZM5.5 20.4048V19.7548V20.4048ZM1 16.4048L1 15.7548C0.641015 15.7548 0.35 16.0458 0.35 16.4048L1 16.4048ZM9.35 16.4048C9.35 16.8333 9.25516 17.2599 9.06829 17.661L10.2466 18.2101C10.512 17.6405 10.65 17.0268 10.65 16.4048H9.35ZM9.06829 17.661C8.88127 18.0623 8.60469 18.4322 8.25014 18.7474L9.11382 19.719C9.595 19.2913 9.98135 18.7793 10.2466 18.2101L9.06829 17.661ZM8.25014 18.7474C7.89546 19.0627 7.47037 19.3162 6.99749 19.4903L7.44666 20.7103C8.06571 20.4823 8.63278 20.1466 9.11382 19.719L8.25014 18.7474ZM6.99749 19.4903C6.52459 19.6645 6.01554 19.7548 5.5 19.7548V21.0548C6.16636 21.0548 6.82763 20.9382 7.44666 20.7103L6.99749 19.4903ZM5.5 19.7548C4.98446 19.7548 4.47541 19.6645 4.00251 19.4903L3.55334 20.7103C4.17237 20.9382 4.83364 21.0548 5.5 21.0548V19.7548ZM4.00251 19.4903C3.52963 19.3162 3.10454 19.0627 2.74986 18.7474L1.88618 19.719C2.36722 20.1466 2.93429 20.4823 3.55334 20.7103L4.00251 19.4903ZM2.74986 18.7474C2.39531 18.4322 2.11873 18.0623 1.93171 17.661L0.75337 18.2101C1.01865 18.7793 1.405 19.2913 1.88618 19.719L2.74986 18.7474ZM1.93171 17.661C1.74484 17.2599 1.65 16.8333 1.65 16.4048L0.35 16.4048C0.35 17.0268 0.487954 17.6405 0.75337 18.2101L1.93171 17.661ZM1 17.0548L2.08896 17.0548L2.08896 15.7548L1 15.7548L1 17.0548ZM8.91104 17.0548H10V15.7548H8.91104V17.0548ZM1 17.0548L10 17.0548V15.7548L1 15.7548L1 17.0548Z" fill="#F9E505"/>
<path d="M24 13.4048H24.65C24.65 13.0458 24.359 12.7548 24 12.7548V13.4048ZM19.5 17.4048V16.7548V17.4048ZM15 13.4048L15 12.7548C14.641 12.7548 14.35 13.0458 14.35 13.4048L15 13.4048ZM23.35 13.4048C23.35 13.8333 23.2552 14.2599 23.0683 14.661L24.2466 15.2101C24.512 14.6405 24.65 14.0268 24.65 13.4048H23.35ZM23.0683 14.661C22.8813 15.0623 22.6047 15.4322 22.2501 15.7474L23.1138 16.719C23.595 16.2913 23.9814 15.7793 24.2466 15.2101L23.0683 14.661ZM22.2501 15.7474C21.8955 16.0627 21.4704 16.3162 20.9975 16.4903L21.4467 17.7103C22.0657 17.4823 22.6328 17.1466 23.1138 16.719L22.2501 15.7474ZM20.9975 16.4903C20.5246 16.6645 20.0155 16.7548 19.5 16.7548V18.0548C20.1664 18.0548 20.8276 17.9382 21.4467 17.7103L20.9975 16.4903ZM19.5 16.7548C18.9845 16.7548 18.4754 16.6645 18.0025 16.4903L17.5533 17.7103C18.1724 17.9382 18.8336 18.0548 19.5 18.0548V16.7548ZM18.0025 16.4903C17.5296 16.3162 17.1045 16.0627 16.7499 15.7474L15.8862 16.719C16.3672 17.1466 16.9343 17.4823 17.5533 17.7103L18.0025 16.4903ZM16.7499 15.7474C16.3953 15.4322 16.1187 15.0623 15.9317 14.661L14.7534 15.2101C15.0186 15.7793 15.405 16.2913 15.8862 16.719L16.7499 15.7474ZM15.9317 14.661C15.7448 14.2599 15.65 13.8333 15.65 13.4048L14.35 13.4048C14.35 14.0268 14.488 14.6405 14.7534 15.2101L15.9317 14.661ZM15 14.0548L16.089 14.0548L16.089 12.7548L15 12.7548L15 14.0548ZM22.911 14.0548H24V12.7548H22.911V14.0548ZM15 14.0548L24 14.0548V12.7548L15 12.7548L15 14.0548Z" fill="#F9E505"/>
</svg>
