<svg width="25" height="22" viewBox="0 0 25 22" fill="none" xmlns="http://www.w3.org/2000/svg">
<path d="M4.65976 5.77728L19.3967 1.58843" stroke="#2B2A29" stroke-width="1.3" stroke-linecap="round" stroke-linejoin="round"/>
<circle cx="12.004" cy="3.4057" r="2" transform="rotate(-6.38769 12.004 3.4057)" fill="#2B2A29"/>
<path d="M9 14.4043L5 7.4043L1 14.4043" stroke="#2B2A29" stroke-width="1.3" stroke-linecap="round" stroke-linejoin="round"/>
<path d="M23.167 10.4043L19.167 3.4043L15.167 10.4043" stroke="#2B2A29" stroke-width="1.3" stroke-linecap="round" stroke-linejoin="round"/>
<path d="M10 16.4043H10.65C10.65 16.0453 10.359 15.7543 10 15.7543V16.4043ZM5.5 20.4043V19.7543V20.4043ZM1 16.4043L1 15.7543C0.641015 15.7543 0.35 16.0453 0.35 16.4043L1 16.4043ZM9.35 16.4043C9.35 16.8329 9.25516 17.2595 9.06829 17.6605L10.2466 18.2096C10.512 17.64 10.65 17.0263 10.65 16.4043H9.35ZM9.06829 17.6605C8.88127 18.0618 8.60469 18.4318 8.25014 18.7469L9.11382 19.7185C9.595 19.2908 9.98135 18.7789 10.2466 18.2096L9.06829 17.6605ZM8.25014 18.7469C7.89546 19.0622 7.47037 19.3157 6.99749 19.4898L7.44666 20.7098C8.06571 20.4819 8.63278 20.1461 9.11382 19.7185L8.25014 18.7469ZM6.99749 19.4898C6.52459 19.664 6.01554 19.7543 5.5 19.7543V21.0543C6.16636 21.0543 6.82763 20.9377 7.44666 20.7098L6.99749 19.4898ZM5.5 19.7543C4.98446 19.7543 4.47541 19.664 4.00251 19.4898L3.55334 20.7098C4.17237 20.9377 4.83364 21.0543 5.5 21.0543V19.7543ZM4.00251 19.4898C3.52963 19.3157 3.10454 19.0622 2.74986 18.7469L1.88618 19.7185C2.36722 20.1461 2.93429 20.4819 3.55334 20.7098L4.00251 19.4898ZM2.74986 18.7469C2.39531 18.4318 2.11873 18.0618 1.93171 17.6605L0.75337 18.2096C1.01865 18.7789 1.405 19.2908 1.88618 19.7185L2.74986 18.7469ZM1.93171 17.6605C1.74484 17.2595 1.65 16.8329 1.65 16.4043L0.35 16.4043C0.35 17.0263 0.487954 17.64 0.75337 18.2096L1.93171 17.6605ZM1 17.0543L2.08896 17.0543L2.08896 15.7543L1 15.7543L1 17.0543ZM8.91104 17.0543H10V15.7543H8.91104V17.0543ZM1 17.0543L10 17.0543V15.7543L1 15.7543L1 17.0543Z" fill="#2B2A29"/>
<path d="M24 13.4043H24.65C24.65 13.0453 24.359 12.7543 24 12.7543V13.4043ZM19.5 17.4043V16.7543V17.4043ZM15 13.4043L15 12.7543C14.641 12.7543 14.35 13.0453 14.35 13.4043L15 13.4043ZM23.35 13.4043C23.35 13.8329 23.2552 14.2595 23.0683 14.6605L24.2466 15.2096C24.512 14.64 24.65 14.0263 24.65 13.4043H23.35ZM23.0683 14.6605C22.8813 15.0618 22.6047 15.4318 22.2501 15.7469L23.1138 16.7185C23.595 16.2908 23.9814 15.7789 24.2466 15.2096L23.0683 14.6605ZM22.2501 15.7469C21.8955 16.0622 21.4704 16.3157 20.9975 16.4898L21.4467 17.7098C22.0657 17.4819 22.6328 17.1461 23.1138 16.7185L22.2501 15.7469ZM20.9975 16.4898C20.5246 16.664 20.0155 16.7543 19.5 16.7543V18.0543C20.1664 18.0543 20.8276 17.9377 21.4467 17.7098L20.9975 16.4898ZM19.5 16.7543C18.9845 16.7543 18.4754 16.664 18.0025 16.4898L17.5533 17.7098C18.1724 17.9377 18.8336 18.0543 19.5 18.0543V16.7543ZM18.0025 16.4898C17.5296 16.3157 17.1045 16.0622 16.7499 15.7469L15.8862 16.7185C16.3672 17.1461 16.9343 17.4819 17.5533 17.7098L18.0025 16.4898ZM16.7499 15.7469C16.3953 15.4318 16.1187 15.0618 15.9317 14.6605L14.7534 15.2096C15.0186 15.7789 15.405 16.2908 15.8862 16.7185L16.7499 15.7469ZM15.9317 14.6605C15.7448 14.2595 15.65 13.8329 15.65 13.4043L14.35 13.4043C14.35 14.0263 14.488 14.64 14.7534 15.2096L15.9317 14.6605ZM15 14.0543L16.089 14.0543L16.089 12.7543L15 12.7543L15 14.0543ZM22.911 14.0543H24V12.7543H22.911V14.0543ZM15 14.0543L24 14.0543V12.7543L15 12.7543L15 14.0543Z" fill="#2B2A29"/>
</svg>
