<svg width="24" height="22" viewBox="0 0 24 22" fill="none" xmlns="http://www.w3.org/2000/svg">
<path d="M12.9776 20.3865C12.3795 20.7798 11.6205 20.7798 11.0224 20.3865C8.32916 18.6155 1 13.2166 1 6.9091C1.00022 5.54334 1.45832 4.21982 2.2964 3.16355C3.13448 2.10728 4.30082 1.38347 5.59711 1.11517C6.8934 0.846872 8.23963 1.05065 9.40692 1.69186C10.5742 2.33308 11.4905 3.37214 12 4.63239C12 4.63239 12 4.63239 12 4.6324V4.6324C12 4.6324 12 4.63239 12 4.63239C12.5095 3.37214 13.4258 2.33308 14.5931 1.69187C15.7604 1.05065 17.1066 0.846873 18.4029 1.11517C19.6992 1.38347 20.8655 2.10728 21.7036 3.16355C22.5417 4.21982 22.9998 5.54334 23 6.9091C23 13.2166 15.6708 18.6155 12.9776 20.3865Z" stroke="#F9E505" stroke-width="1.5" stroke-linecap="round" stroke-linejoin="round"/>
</svg>
