<svg width="22" height="23" viewBox="0 0 22 23" fill="none" xmlns="http://www.w3.org/2000/svg">
<path fill-rule="evenodd" clip-rule="evenodd" d="M11.2796 0.121094C9.70903 0.121094 8.20274 0.745019 7.09214 1.85561C5.98155 2.96621 5.35762 4.4725 5.35762 6.04311C5.35762 7.61373 5.98155 9.12002 7.09214 10.2306C8.20274 11.3412 9.70903 11.9651 11.2796 11.9651C12.8503 11.9651 14.3565 11.3412 15.4671 10.2306C16.5777 9.12002 17.2017 7.61373 17.2017 6.04311C17.2017 4.4725 16.5777 2.96621 15.4671 1.85561C14.3565 0.745019 12.8503 0.121094 11.2796 0.121094ZM8.1528 2.91627C8.98209 2.08698 10.1069 1.62109 11.2796 1.62109C12.4524 1.62109 13.5772 2.08698 14.4065 2.91627C15.2358 3.74556 15.7017 4.87032 15.7017 6.04311C15.7017 7.21591 15.2358 8.34066 14.4065 9.16995C13.5772 9.99924 12.4524 10.4651 11.2796 10.4651C10.1069 10.4651 8.98209 9.99924 8.1528 9.16995C7.32351 8.34066 6.85762 7.21591 6.85762 6.04311C6.85762 4.87032 7.32351 3.74556 8.1528 2.91627ZM11.2792 13.6562C8.93532 13.6562 6.65165 14.3986 4.75578 15.7769C2.85991 17.1551 1.44928 19.0984 0.726232 21.328C0.598456 21.722 0.814283 22.145 1.2083 22.2728C1.60231 22.4006 2.0253 22.1847 2.15308 21.7907C2.77836 19.8626 3.99827 18.182 5.6378 16.9901C7.27733 15.7982 9.25224 15.1562 11.2792 15.1562C13.3062 15.1562 15.2811 15.7982 16.9207 16.9901C18.5602 18.182 19.7801 19.8626 20.4054 21.7907C20.5331 22.1847 20.9561 22.4006 21.3502 22.2728C21.7442 22.145 21.96 21.722 21.8322 21.328C21.1092 19.0984 19.6985 17.1551 17.8027 15.7769C15.9068 14.3986 13.6231 13.6562 11.2792 13.6562Z" fill="#2B2A29"/>
</svg>
