<svg width="93" height="26" viewBox="0 0 93 26" fill="none" xmlns="http://www.w3.org/2000/svg">
<path d="M79.2331 25H13.7669C6.67368 25 1 19.5629 1 13C1 6.4371 6.67368 1 13.7669 1H79.2331C86.3269 1 92 6.43707 92 13C92 19.5629 86.3269 25 79.2331 25Z" stroke="#2B2A29" stroke-width="2"/>
<path d="M15.4522 7.88672H17.1958L13.7693 10.9617L17.5342 15.8893H15.9L12.7887 11.7396L11.6866 12.6884V15.8893H10.3545V7.88672H11.6866V10.5388C11.6866 10.8815 11.4811 11.2591 11.3354 11.5678L11.5533 11.6597C11.699 11.3509 11.8685 10.9506 12.1223 10.7329L15.4522 7.88672Z" fill="#2B2A29"/>
<path d="M18.2734 7.88672H19.6656V9.1437H18.2734V7.88672Z" fill="#2B2A29"/>
<path d="M18.3457 10.1758H19.6173V15.8917H18.3457V10.1758Z" fill="#2B2A29"/>
<path d="M33.0773 12.5533C33.0773 11.6961 32.3991 10.9987 31.3094 10.9987C30.1956 10.9987 29.4329 11.776 29.4329 12.5533H33.0773ZM27.9434 12.9996C27.9434 11.2957 29.3238 10.0039 31.2853 10.0039C33.2952 10.0039 34.5423 11.3873 34.5296 12.9536C34.5296 13.0678 34.5296 13.3423 34.5296 13.4333H29.4201C29.4201 14.1196 30.075 15.0227 31.4427 15.0227C32.3145 15.0227 32.8467 14.611 32.9799 14.2571H34.3966C34.2271 14.8518 33.368 16.0746 31.5518 16.0746C29.215 16.0746 27.9434 14.7029 27.9434 12.9996Z" fill="#2B2A29"/>
<path d="M36.8429 12.987C36.8429 14.0619 37.5328 14.9422 38.7799 14.9422C40.0391 14.9422 40.6565 14.0619 40.6565 12.987C40.6565 11.924 40.0391 11.1239 38.7799 11.1239C37.5328 11.1239 36.8429 11.924 36.8429 12.987ZM36.6613 18.7498H35.3896V10.1751H36.6613V10.5866C36.6613 10.9293 36.4793 11.3299 36.3588 11.6615L36.5884 11.7294C36.7099 11.4098 36.7818 10.9404 37.0242 10.7007C37.4726 10.255 38.1021 9.99219 38.9132 9.99219C40.7414 9.99219 41.9644 11.3068 41.9399 13.0101C41.904 14.6683 40.6928 16.0628 38.925 16.0628C38.1136 16.0628 37.4844 15.7772 37.0366 15.3306C36.7818 15.0798 36.6972 14.6224 36.5884 14.2908L36.3588 14.3707C36.4793 14.6903 36.6613 15.102 36.6613 15.4453V18.7498Z" fill="#2B2A29"/>
<path d="M54.7736 12.5533C54.7736 11.6961 54.0955 10.9987 53.0057 10.9987C51.8916 10.9987 51.1291 11.776 51.1291 12.5533H54.7736ZM49.6396 12.9996C49.6396 11.2957 51.0201 10.0039 52.9816 10.0039C54.9914 10.0039 56.2383 11.3873 56.2259 12.9536C56.2259 13.0678 56.2259 13.3423 56.2259 13.4333H51.1165C51.1165 14.1196 51.771 15.0227 53.139 15.0227C54.0105 15.0227 54.543 14.611 54.6763 14.2571H56.0935C55.9234 14.8518 55.0643 16.0746 53.2478 16.0746C50.911 16.0746 49.6396 14.7029 49.6396 12.9996Z" fill="#2B2A29"/>
<path d="M73.9842 10.1855H75.6305L73.0882 12.3922L76.2482 15.9024H74.6137L72.204 13.1353L71.6105 13.6387L71.6232 15.8904H70.3516V10.1899H71.6232V11.5002C71.6232 11.8657 71.4177 12.2892 71.2476 12.6208L71.4781 12.7118C71.6356 12.3811 71.8293 11.9576 72.1194 11.7176L73.9842 10.1855Z" fill="#2B2A29"/>
<path d="M68.2245 10.1797H69.4121V15.881H68.2245V12.7908C68.2245 12.3539 68.4244 11.8277 68.571 11.4109L68.3717 11.3515C68.2245 11.758 68.0457 12.3041 67.7729 12.6515L64.8191 15.881H63.6426V10.1797H64.8191V13.2807C64.8191 13.7174 64.6303 14.243 64.4828 14.6606L64.683 14.7197C64.8302 14.3126 65.009 13.7668 65.2818 13.4197L68.2245 10.1797Z" fill="#2B2A29"/>
<path d="M81.4628 10.1797H82.6504V15.881H81.4628V12.7908C81.4628 12.3539 81.6627 11.8277 81.8093 11.4109L81.61 11.3515C81.4628 11.758 81.284 12.3041 81.0112 12.6515L78.0573 15.881H76.8809V10.1797H78.0573V13.2807C78.0573 13.7174 77.8686 14.243 77.7211 14.6606L77.9213 14.7197C78.0685 14.3126 78.2473 13.7668 78.5201 13.4197L81.4628 10.1797Z" fill="#2B2A29"/>
<path d="M62.8807 10.207H56.3887V11.2656H59.006V15.8765H60.2634V11.2656H62.8807V10.207Z" fill="#2B2A29"/>
<path d="M47.4726 10.207V12.5106H44.131V10.207H42.8594V15.892H44.131V13.5691H47.4726V15.892H48.7439V10.207H47.4726Z" fill="#2B2A29"/>
<path d="M24.1728 14.9411C22.9257 14.9411 22.2358 14.0608 22.2358 12.9859C22.2358 11.9229 22.9257 11.1228 24.1728 11.1228C25.4317 11.1228 26.0494 11.9229 26.0494 12.9859C26.0494 14.0608 25.4317 14.9411 24.1728 14.9411ZM25.6543 10.2664C25.2585 10.0897 24.8044 9.99047 24.3061 9.99047C23.4947 9.99047 22.8652 10.2539 22.4168 10.6996C22.1747 10.9393 22.1025 11.4087 21.981 11.7283L21.7514 11.6595C21.8648 11.3487 22.0297 10.9779 22.0498 10.6498H22.0514C22.0703 10.5521 22.0929 10.4523 22.1205 10.3501C22.1763 10.1421 22.2717 9.95125 22.4075 9.77711C22.5423 9.60386 22.7193 9.45373 22.939 9.32789C23.1575 9.20204 23.4352 9.12213 23.7715 9.08732L25.4355 8.93104C26.0885 8.86167 26.562 8.66823 26.8552 8.35068C27.149 8.03403 27.3145 7.66733 27.352 7.25H26.1489C26.1027 7.47563 25.9812 7.6407 25.7854 7.74517C25.5892 7.84965 25.3282 7.91931 25.0022 7.95385L23.6732 8.08436C23.1231 8.13617 22.666 8.2708 22.3024 8.48765C21.9386 8.70451 21.6469 8.99777 21.4284 9.36709C21.2338 9.69341 21.0912 10.0791 20.9995 10.524C20.9995 10.524 20.7822 11.5975 20.7832 12.9683C20.7832 12.9718 20.7822 12.9765 20.7822 12.9803V13.0224C20.794 14.7427 22.2559 16.1334 24.0575 16.1334C24.9504 16.1334 25.7593 15.7916 26.3504 15.2379C26.9398 14.6391 27.3145 13.8351 27.3328 13.009C27.3328 12.9987 27.3328 12.9882 27.3328 12.9779C27.3232 11.8129 26.6491 10.7988 25.6543 10.2664Z" fill="#2B2A29"/>
</svg>
