<svg width="69" height="32" viewBox="0 0 69 32" fill="none" xmlns="http://www.w3.org/2000/svg">
<path d="M29.5386 17.0123L32.9186 3.19922H40.315L36.4578 18.9135C35.742 21.9399 33.4157 22.6578 31.2883 22.6578H14.209C12.3201 22.6578 10.7493 21.8818 11.6044 18.3703L13.1353 12.1039C13.9307 8.9417 16.3563 8.2045 18.106 8.2045H30.0158L29.0614 12.1234H22.9773C22.0826 12.1234 21.5855 12.3174 21.3469 13.3262L20.3727 17.3227C20.0147 18.7583 20.5317 18.8553 21.6054 18.8553H27.1726C28.2064 18.8747 29.1012 18.8165 29.5386 17.0123Z" fill="#141414"/>
<path d="M44.6514 21.7951L48.0115 8.21484H40.814L37.7321 20.3983C37.2948 22.7652 34.6702 23.8904 32.8211 23.9097H27.7112L25.9814 28.7986H36.6983C39.3427 28.818 43.2396 27.4794 44.6514 21.7951Z" fill="#141414"/>
<path d="M46.1465 22.6661L49.626 8.21289H56.8235L53.3441 22.6661H46.1465Z" fill="#141414"/>
</svg>
