<svg width="39" height="32" viewBox="0 0 39 32" fill="none" xmlns="http://www.w3.org/2000/svg">
<path fill-rule="evenodd" clip-rule="evenodd" d="M0 0H39V32H0V0Z" fill="#F83200"/>
<path d="M10.0465 13.8986L8.01074 9.26562H12.0878L10.0465 13.8986Z" fill="white"/>
<path d="M15.6245 20.3342C15.6245 21.6661 14.7561 22.8659 12.2835 22.8659C9.81071 22.8659 8.94238 21.2987 8.94238 20.3342V18.3995H11.1448V20.736C11.1448 21.3619 11.6566 21.867 12.2835 21.867C12.9102 21.867 13.4163 21.3446 13.4163 20.7188V9.26562H15.6245V20.3342Z" fill="white"/>
<path d="M32.1862 18.3996H29.9837V20.7361C29.9837 21.3618 29.4777 21.8671 28.8508 21.8671C28.224 21.8671 27.7123 21.3561 27.7123 20.7361V9.27148H25.5098V22.6708H32.1862V18.3996Z" fill="white"/>
<path fill-rule="evenodd" clip-rule="evenodd" d="M23.9052 11.4472V13.7321C23.9052 14.398 23.3244 15.5807 22.4503 15.5807C23.3187 15.5807 23.9052 16.327 23.9052 16.8953V20.914C23.9052 21.5972 23.3589 22.665 21.7028 22.665H17.2979V9.26562H21.7028C22.5538 9.26562 23.9052 9.96604 23.9052 11.4472ZM19.5003 21.5685H20.8344C21.7028 21.5685 21.7028 20.9829 21.7028 18.8817C21.7028 16.7863 21.7028 16.1663 20.8344 16.1663H19.5003V21.5685ZM19.5003 15.0353H20.7022C21.5015 15.0353 21.7028 14.8975 21.7028 12.8021C21.7028 10.7009 21.5015 10.5344 20.7022 10.5344H19.5003V15.0353Z" fill="white"/>
<path d="M10.0461 14.3926C9.34459 14.3926 8.76953 14.9609 8.76953 15.667C8.76953 16.3674 9.33878 16.9415 10.0461 16.9415C10.7477 16.9415 11.3227 16.3732 11.3227 15.667C11.3227 14.9609 10.7534 14.3926 10.0461 14.3926Z" fill="white"/>
</svg>
