<svg width="80" height="15" viewBox="0 0 80 15" fill="none" xmlns="http://www.w3.org/2000/svg">
<g clip-path="url(#clip0_1033_365741)">
<path fill-rule="evenodd" clip-rule="evenodd" d="M19.0771 7.5C19.0771 2.87527 22.8655 0 28.9209 0C34.7352 0 38.6892 2.94006 38.6892 7.26512C38.6892 12.0761 35.0289 14.8947 28.7401 14.8947C22.8128 14.8947 19.0771 12.0356 19.0771 7.5ZM23.5056 7.40281C23.5056 10.9909 25.4337 13.0723 28.7852 13.0723C32.2196 13.0723 34.1703 11.0719 34.1778 7.5486C34.1778 3.93628 32.2497 1.81426 28.951 1.81426C25.5166 1.81426 23.5056 3.89579 23.5056 7.40281Z" fill="#2B2A29"/>
<path d="M15.8538 0.550933H13.7752C13.7827 1.70104 13.3685 1.66865 12.9241 1.36087C11.335 0.388946 9.6705 0.105469 7.68972 0.105469C2.97498 0.105469 0 1.91163 0 4.795C0 7.56497 2.35737 8.34251 5.58837 8.87709L8.45042 9.37924C11.8245 9.94615 12.8714 10.1973 12.8714 11.2502C12.8714 12.3031 11.8169 13.024 8.73658 13.0564C6.69552 13.0725 4.4662 12.4003 3.53233 11.4769C3.42655 11.3742 3.31897 11.2811 3.21132 11.1878L3.20942 11.1862C2.7658 10.8021 2.31981 10.416 1.98077 9.35497H0.0526871V14.5628H2.18412C2.28208 13.8258 2.48543 13.2426 2.96741 13.5423C4.50384 14.4251 7.12481 15.0002 8.84958 15.0002C13.8429 15.0002 16.6221 13.2994 16.6221 10.254C16.6221 6.87245 12.2708 6.27193 8.6075 5.76637C5.94459 5.39886 3.64526 5.08153 3.64526 3.78258C3.64526 2.66487 5.55829 1.91163 7.82526 1.91163C9.58008 1.91163 11.6738 2.70536 12.6379 3.66109C12.7156 3.73645 12.7939 3.80915 12.8718 3.88137C13.3378 4.31361 13.785 4.72818 13.9333 5.58873H15.8538V0.550933Z" fill="#2B2A29"/>
<path d="M71.64 5.99355L74.1329 3.13448C74.276 2.92389 74.3513 2.77811 74.3513 2.64851C74.3513 2.43793 74.1856 2.35694 73.6584 2.35694H73.0257V0.550781H79.8343V2.35694H78.938C77.9062 2.35694 77.7104 2.52702 76.2719 4.47896L72.3254 9.0632V11.8574C72.3254 12.5702 72.6642 12.8213 73.6207 12.8213H75.112V14.5626H65.577V12.8213H67.0683C68.0324 12.8213 68.3637 12.5702 68.3637 11.8574V9.0632L63.7168 3.53134C63.632 3.42504 63.558 3.3279 63.4905 3.2392L63.4898 3.23838C62.9444 2.5235 62.8174 2.35694 60.915 2.35694V0.550781H69.5386V2.35694H68.9211C68.296 2.35694 68.0324 2.48652 68.0324 2.73761C68.0324 2.89559 68.1425 3.03078 68.2453 3.15686C68.2795 3.19884 68.313 3.23981 68.3411 3.28026L70.691 6.03404C70.9771 6.34182 71.3161 6.39041 71.64 5.99355Z" fill="#2B2A29"/>
<path fill-rule="evenodd" clip-rule="evenodd" d="M79.2624 12.7643C79.3603 12.8291 79.4129 12.9587 79.4129 13.0802C79.4129 13.3718 79.2246 13.4771 78.9836 13.4852L79.3979 14.1574H79.2021L78.8104 13.4852H78.5017V14.1574H78.3359V12.6914H78.9309C79.0439 12.6914 79.1569 12.6995 79.2624 12.7643ZM78.4941 13.3394H78.7502L78.776 13.3395L78.8028 13.3398C78.9947 13.3425 79.2398 13.3458 79.2398 13.0721C79.2398 12.8453 79.0514 12.821 78.8858 12.821H78.4941V13.3394Z" fill="#2B2A29"/>
<path fill-rule="evenodd" clip-rule="evenodd" d="M77.5674 13.4211C77.5674 12.7003 78.1097 12.1172 78.7875 12.1172C79.4578 12.1172 80 12.7003 80 13.4211C80 14.1501 79.4578 14.7333 78.7875 14.7333C78.1097 14.7333 77.5674 14.1501 77.5674 13.4211ZM77.718 13.4211C77.718 14.061 78.1925 14.5794 78.7875 14.5794C79.375 14.5794 79.857 14.0691 79.857 13.4211C79.857 12.7895 79.375 12.2711 78.7875 12.2711C78.2 12.2711 77.718 12.7895 77.718 13.4211Z" fill="#2B2A29"/>
<path d="M54.3706 8.9905L54.4083 3.38573C54.4083 2.64869 54.0543 2.39761 53.0375 2.39761H51.84V0.65625H59.4393V2.39761H58.4452C57.4284 2.39761 57.0744 2.64869 57.0744 3.38573V14.6682L54.0994 14.6438L44.4742 4.83551V11.9548C44.4742 12.6676 44.8281 12.943 45.8449 12.943H47.1629V14.6682H39.2773V12.943H40.5878C41.6047 12.943 41.9586 12.6676 41.9586 11.9548V3.38573C41.9586 2.64869 41.6047 2.39761 40.5878 2.39761H39.2773V0.65625H46.1009L54.3706 8.9905Z" fill="#2B2A29"/>
</g>
<defs>
<clipPath id="clip0_1033_365741">
<rect width="80" height="15" fill="white"/>
</clipPath>
</defs>
</svg>
